<?xml version="1.0" encoding="utf-8" standalone="no"?>
<!DOCTYPE svg PUBLIC "-//W3C//DTD SVG 1.1//EN"
  "http://www.w3.org/Graphics/SVG/1.1/DTD/svg11.dtd">
<!-- Created with matplotlib (http://matplotlib.org/) -->
<svg height="396pt" version="1.1" viewBox="0 0 576 396" width="576pt" xmlns="http://www.w3.org/2000/svg" xmlns:xlink="http://www.w3.org/1999/xlink">
 <defs>
  <style type="text/css">
*{stroke-linecap:butt;stroke-linejoin:round;stroke-miterlimit:100000;}
  </style>
 </defs>
 <g id="figure_1">
  <g id="patch_1">
   <path d="M 0 396 
L 576 396 
L 576 0 
L 0 0 
z
" style="fill:#ffffff;"/>
  </g>
  <g id="axes_1">
   <g id="patch_2">
    <path d="M 53.6475 352.997813 
L 563.04 352.997813 
L 563.04 12.96 
L 53.6475 12.96 
z
" style="fill:#eaeaf2;"/>
   </g>
   <g id="matplotlib.axis_1">
    <g id="xtick_1">
     <g id="line2d_1">
      <path clip-path="url(#p76d3e9df21)" d="M 73.434354 352.997813 
L 73.434354 12.96 
" style="fill:none;stroke:#ffffff;stroke-linecap:round;"/>
     </g>
     <g id="line2d_2"/>
     <g id="line2d_3"/>
     <g id="text_1">
      <!-- 50 -->
      <defs>
       <path d="M 4.15625 35.296875 
Q 4.15625 48 6.765625 55.734375 
Q 9.375 63.484375 14.515625 67.671875 
Q 19.671875 71.875 27.484375 71.875 
Q 33.25 71.875 37.59375 69.546875 
Q 41.9375 67.234375 44.765625 62.859375 
Q 47.609375 58.5 49.21875 52.21875 
Q 50.828125 45.953125 50.828125 35.296875 
Q 50.828125 22.703125 48.234375 14.96875 
Q 45.65625 7.234375 40.5 3 
Q 35.359375 -1.21875 27.484375 -1.21875 
Q 17.140625 -1.21875 11.234375 6.203125 
Q 4.15625 15.140625 4.15625 35.296875 
M 13.1875 35.296875 
Q 13.1875 17.671875 17.3125 11.828125 
Q 21.4375 6 27.484375 6 
Q 33.546875 6 37.671875 11.859375 
Q 41.796875 17.71875 41.796875 35.296875 
Q 41.796875 52.984375 37.671875 58.78125 
Q 33.546875 64.59375 27.390625 64.59375 
Q 21.34375 64.59375 17.71875 59.46875 
Q 13.1875 52.9375 13.1875 35.296875 
" id="ArialMT-30"/>
       <path d="M 4.15625 18.75 
L 13.375 19.53125 
Q 14.40625 12.796875 18.140625 9.390625 
Q 21.875 6 27.15625 6 
Q 33.5 6 37.890625 10.78125 
Q 42.28125 15.578125 42.28125 23.484375 
Q 42.28125 31 38.0625 35.34375 
Q 33.84375 39.703125 27 39.703125 
Q 22.75 39.703125 19.328125 37.765625 
Q 15.921875 35.84375 13.96875 32.765625 
L 5.71875 33.84375 
L 12.640625 70.609375 
L 48.25 70.609375 
L 48.25 62.203125 
L 19.671875 62.203125 
L 15.828125 42.96875 
Q 22.265625 47.46875 29.34375 47.46875 
Q 38.71875 47.46875 45.15625 40.96875 
Q 51.609375 34.46875 51.609375 24.265625 
Q 51.609375 14.546875 45.953125 7.46875 
Q 39.0625 -1.21875 27.15625 -1.21875 
Q 17.390625 -1.21875 11.203125 4.25 
Q 5.03125 9.71875 4.15625 18.75 
" id="ArialMT-35"/>
      </defs>
      <g style="fill:#262626;" transform="translate(67.8734167687 367.155625)scale(0.1 -0.1)">
       <use xlink:href="#ArialMT-35"/>
       <use x="55.615234375" xlink:href="#ArialMT-30"/>
      </g>
     </g>
    </g>
    <g id="xtick_2">
     <g id="line2d_4">
      <path clip-path="url(#p76d3e9df21)" d="M 134.897938 352.997813 
L 134.897938 12.96 
" style="fill:none;stroke:#ffffff;stroke-linecap:round;"/>
     </g>
     <g id="line2d_5"/>
     <g id="line2d_6"/>
     <g id="text_2">
      <!-- 100 -->
      <defs>
       <path d="M 37.25 0 
L 28.46875 0 
L 28.46875 56 
Q 25.296875 52.984375 20.140625 49.953125 
Q 14.984375 46.921875 10.890625 45.40625 
L 10.890625 53.90625 
Q 18.265625 57.375 23.78125 62.296875 
Q 29.296875 67.234375 31.59375 71.875 
L 37.25 71.875 
z
" id="ArialMT-31"/>
      </defs>
      <g style="fill:#262626;" transform="translate(126.556531294 367.155625)scale(0.1 -0.1)">
       <use xlink:href="#ArialMT-31"/>
       <use x="55.615234375" xlink:href="#ArialMT-30"/>
       <use x="111.23046875" xlink:href="#ArialMT-30"/>
      </g>
     </g>
    </g>
    <g id="xtick_3">
     <g id="line2d_7">
      <path clip-path="url(#p76d3e9df21)" d="M 216.148375 352.997813 
L 216.148375 12.96 
" style="fill:none;stroke:#ffffff;stroke-linecap:round;"/>
     </g>
     <g id="line2d_8"/>
     <g id="line2d_9"/>
     <g id="text_3">
      <!-- 250 -->
      <defs>
       <path d="M 50.34375 8.453125 
L 50.34375 0 
L 3.03125 0 
Q 2.9375 3.171875 4.046875 6.109375 
Q 5.859375 10.9375 9.828125 15.625 
Q 13.8125 20.3125 21.34375 26.46875 
Q 33.015625 36.03125 37.109375 41.625 
Q 41.21875 47.21875 41.21875 52.203125 
Q 41.21875 57.421875 37.46875 61 
Q 33.734375 64.59375 27.734375 64.59375 
Q 21.390625 64.59375 17.578125 60.78125 
Q 13.765625 56.984375 13.71875 50.25 
L 4.6875 51.171875 
Q 5.609375 61.28125 11.65625 66.578125 
Q 17.71875 71.875 27.9375 71.875 
Q 38.234375 71.875 44.234375 66.15625 
Q 50.25 60.453125 50.25 52 
Q 50.25 47.703125 48.484375 43.546875 
Q 46.734375 39.40625 42.65625 34.8125 
Q 38.578125 30.21875 29.109375 22.21875 
Q 21.1875 15.578125 18.9375 13.203125 
Q 16.703125 10.84375 15.234375 8.453125 
z
" id="ArialMT-32"/>
      </defs>
      <g style="fill:#262626;" transform="translate(207.806968837 367.155625)scale(0.1 -0.1)">
       <use xlink:href="#ArialMT-32"/>
       <use x="55.615234375" xlink:href="#ArialMT-35"/>
       <use x="111.23046875" xlink:href="#ArialMT-30"/>
      </g>
     </g>
    </g>
    <g id="xtick_4">
     <g id="line2d_10">
      <path clip-path="url(#p76d3e9df21)" d="M 277.611958 352.997813 
L 277.611958 12.96 
" style="fill:none;stroke:#ffffff;stroke-linecap:round;"/>
     </g>
     <g id="line2d_11"/>
     <g id="line2d_12"/>
     <g id="text_4">
      <!-- 500 -->
      <g style="fill:#262626;" transform="translate(269.270552112 367.155625)scale(0.1 -0.1)">
       <use xlink:href="#ArialMT-35"/>
       <use x="55.615234375" xlink:href="#ArialMT-30"/>
       <use x="111.23046875" xlink:href="#ArialMT-30"/>
      </g>
     </g>
    </g>
    <g id="xtick_5">
     <g id="line2d_13">
      <path clip-path="url(#p76d3e9df21)" d="M 339.075542 352.997813 
L 339.075542 12.96 
" style="fill:none;stroke:#ffffff;stroke-linecap:round;"/>
     </g>
     <g id="line2d_14"/>
     <g id="line2d_15"/>
     <g id="text_5">
      <!-- 1000 -->
      <g style="fill:#262626;" transform="translate(327.953666638 367.155625)scale(0.1 -0.1)">
       <use xlink:href="#ArialMT-31"/>
       <use x="55.615234375" xlink:href="#ArialMT-30"/>
       <use x="111.23046875" xlink:href="#ArialMT-30"/>
       <use x="166.845703125" xlink:href="#ArialMT-30"/>
      </g>
     </g>
    </g>
    <g id="xtick_6">
     <g id="line2d_16">
      <path clip-path="url(#p76d3e9df21)" d="M 420.325979 352.997813 
L 420.325979 12.96 
" style="fill:none;stroke:#ffffff;stroke-linecap:round;"/>
     </g>
     <g id="line2d_17"/>
     <g id="line2d_18"/>
     <g id="text_6">
      <!-- 2500 -->
      <g style="fill:#262626;" transform="translate(409.204104181 367.155625)scale(0.1 -0.1)">
       <use xlink:href="#ArialMT-32"/>
       <use x="55.615234375" xlink:href="#ArialMT-35"/>
       <use x="111.23046875" xlink:href="#ArialMT-30"/>
       <use x="166.845703125" xlink:href="#ArialMT-30"/>
      </g>
     </g>
    </g>
    <g id="xtick_7">
     <g id="line2d_19">
      <path clip-path="url(#p76d3e9df21)" d="M 481.789562 352.997813 
L 481.789562 12.96 
" style="fill:none;stroke:#ffffff;stroke-linecap:round;"/>
     </g>
     <g id="line2d_20"/>
     <g id="line2d_21"/>
     <g id="text_7">
      <!-- 5000 -->
      <g style="fill:#262626;" transform="translate(470.667687456 367.155625)scale(0.1 -0.1)">
       <use xlink:href="#ArialMT-35"/>
       <use x="55.615234375" xlink:href="#ArialMT-30"/>
       <use x="111.23046875" xlink:href="#ArialMT-30"/>
       <use x="166.845703125" xlink:href="#ArialMT-30"/>
      </g>
     </g>
    </g>
    <g id="xtick_8">
     <g id="line2d_22">
      <path clip-path="url(#p76d3e9df21)" d="M 543.253146 352.997813 
L 543.253146 12.96 
" style="fill:none;stroke:#ffffff;stroke-linecap:round;"/>
     </g>
     <g id="line2d_23"/>
     <g id="line2d_24"/>
     <g id="text_8">
      <!-- 10000 -->
      <g style="fill:#262626;" transform="translate(529.350801981 367.155625)scale(0.1 -0.1)">
       <use xlink:href="#ArialMT-31"/>
       <use x="55.615234375" xlink:href="#ArialMT-30"/>
       <use x="111.23046875" xlink:href="#ArialMT-30"/>
       <use x="166.845703125" xlink:href="#ArialMT-30"/>
       <use x="222.4609375" xlink:href="#ArialMT-30"/>
      </g>
     </g>
    </g>
    <g id="xtick_9">
     <g id="line2d_25"/>
     <g id="line2d_26"/>
    </g>
    <g id="xtick_10">
     <g id="line2d_27"/>
     <g id="line2d_28"/>
    </g>
    <g id="xtick_11">
     <g id="line2d_29"/>
     <g id="line2d_30"/>
    </g>
    <g id="xtick_12">
     <g id="line2d_31"/>
     <g id="line2d_32"/>
    </g>
    <g id="xtick_13">
     <g id="line2d_33"/>
     <g id="line2d_34"/>
    </g>
    <g id="xtick_14">
     <g id="line2d_35"/>
     <g id="line2d_36"/>
    </g>
    <g id="xtick_15">
     <g id="line2d_37"/>
     <g id="line2d_38"/>
    </g>
    <g id="xtick_16">
     <g id="line2d_39"/>
     <g id="line2d_40"/>
    </g>
    <g id="xtick_17">
     <g id="line2d_41"/>
     <g id="line2d_42"/>
    </g>
    <g id="xtick_18">
     <g id="line2d_43"/>
     <g id="line2d_44"/>
    </g>
    <g id="xtick_19">
     <g id="line2d_45"/>
     <g id="line2d_46"/>
    </g>
    <g id="xtick_20">
     <g id="line2d_47"/>
     <g id="line2d_48"/>
    </g>
    <g id="xtick_21">
     <g id="line2d_49"/>
     <g id="line2d_50"/>
    </g>
    <g id="xtick_22">
     <g id="line2d_51"/>
     <g id="line2d_52"/>
    </g>
    <g id="xtick_23">
     <g id="line2d_53"/>
     <g id="line2d_54"/>
    </g>
    <g id="xtick_24">
     <g id="line2d_55"/>
     <g id="line2d_56"/>
    </g>
    <g id="xtick_25">
     <g id="line2d_57"/>
     <g id="line2d_58"/>
    </g>
    <g id="xtick_26">
     <g id="line2d_59"/>
     <g id="line2d_60"/>
    </g>
    <g id="xtick_27">
     <g id="line2d_61"/>
     <g id="line2d_62"/>
    </g>
    <g id="xtick_28">
     <g id="line2d_63"/>
     <g id="line2d_64"/>
    </g>
    <g id="xtick_29">
     <g id="line2d_65"/>
     <g id="line2d_66"/>
    </g>
    <g id="xtick_30">
     <g id="line2d_67"/>
     <g id="line2d_68"/>
    </g>
    <g id="text_9">
     <!-- Number of random points -->
     <defs>
      <path d="M 14.703125 0 
L 6.546875 0 
L 6.546875 71.578125 
L 15.328125 71.578125 
L 15.328125 46.046875 
Q 20.90625 53.03125 29.546875 53.03125 
Q 34.328125 53.03125 38.59375 51.09375 
Q 42.875 49.171875 45.625 45.671875 
Q 48.390625 42.1875 49.953125 37.25 
Q 51.515625 32.328125 51.515625 26.703125 
Q 51.515625 13.375 44.921875 6.09375 
Q 38.328125 -1.171875 29.109375 -1.171875 
Q 19.921875 -1.171875 14.703125 6.5 
z
M 14.59375 26.3125 
Q 14.59375 17 17.140625 12.84375 
Q 21.296875 6.0625 28.375 6.0625 
Q 34.125 6.0625 38.328125 11.0625 
Q 42.53125 16.0625 42.53125 25.984375 
Q 42.53125 36.140625 38.5 40.96875 
Q 34.46875 45.796875 28.765625 45.796875 
Q 23 45.796875 18.796875 40.796875 
Q 14.59375 35.796875 14.59375 26.3125 
" id="ArialMT-62"/>
      <path d="M 40.4375 6.390625 
Q 35.546875 2.25 31.03125 0.53125 
Q 26.515625 -1.171875 21.34375 -1.171875 
Q 12.796875 -1.171875 8.203125 3 
Q 3.609375 7.171875 3.609375 13.671875 
Q 3.609375 17.484375 5.34375 20.625 
Q 7.078125 23.78125 9.890625 25.6875 
Q 12.703125 27.59375 16.21875 28.5625 
Q 18.796875 29.25 24.03125 29.890625 
Q 34.671875 31.15625 39.703125 32.90625 
Q 39.75 34.71875 39.75 35.203125 
Q 39.75 40.578125 37.25 42.78125 
Q 33.890625 45.75 27.25 45.75 
Q 21.046875 45.75 18.09375 43.578125 
Q 15.140625 41.40625 13.71875 35.890625 
L 5.125 37.0625 
Q 6.296875 42.578125 8.984375 45.96875 
Q 11.671875 49.359375 16.75 51.1875 
Q 21.828125 53.03125 28.515625 53.03125 
Q 35.15625 53.03125 39.296875 51.46875 
Q 43.453125 49.90625 45.40625 47.53125 
Q 47.359375 45.171875 48.140625 41.546875 
Q 48.578125 39.3125 48.578125 33.453125 
L 48.578125 21.734375 
Q 48.578125 9.46875 49.140625 6.21875 
Q 49.703125 2.984375 51.375 0 
L 42.1875 0 
Q 40.828125 2.734375 40.4375 6.390625 
M 39.703125 26.03125 
Q 34.90625 24.078125 25.34375 22.703125 
Q 19.921875 21.921875 17.671875 20.9375 
Q 15.4375 19.96875 14.203125 18.09375 
Q 12.984375 16.21875 12.984375 13.921875 
Q 12.984375 10.40625 15.640625 8.0625 
Q 18.3125 5.71875 23.4375 5.71875 
Q 28.515625 5.71875 32.46875 7.9375 
Q 36.421875 10.15625 38.28125 14.015625 
Q 39.703125 17 39.703125 22.796875 
z
" id="ArialMT-61"/>
      <path d="M 8.6875 0 
L 8.6875 45.015625 
L 0.921875 45.015625 
L 0.921875 51.859375 
L 8.6875 51.859375 
L 8.6875 57.375 
Q 8.6875 62.59375 9.625 65.140625 
Q 10.890625 68.5625 14.078125 70.671875 
Q 17.28125 72.796875 23.046875 72.796875 
Q 26.765625 72.796875 31.25 71.921875 
L 29.9375 64.265625 
Q 27.203125 64.75 24.75 64.75 
Q 20.75 64.75 19.09375 63.03125 
Q 17.4375 61.328125 17.4375 56.640625 
L 17.4375 51.859375 
L 27.546875 51.859375 
L 27.546875 45.015625 
L 17.4375 45.015625 
L 17.4375 0 
z
" id="ArialMT-66"/>
      <path d="M 42.09375 16.703125 
L 51.171875 15.578125 
Q 49.03125 7.625 43.21875 3.21875 
Q 37.40625 -1.171875 28.375 -1.171875 
Q 17 -1.171875 10.328125 5.828125 
Q 3.65625 12.84375 3.65625 25.484375 
Q 3.65625 38.578125 10.390625 45.796875 
Q 17.140625 53.03125 27.875 53.03125 
Q 38.28125 53.03125 44.875 45.953125 
Q 51.46875 38.875 51.46875 26.03125 
Q 51.46875 25.25 51.421875 23.6875 
L 12.75 23.6875 
Q 13.234375 15.140625 17.578125 10.59375 
Q 21.921875 6.0625 28.421875 6.0625 
Q 33.25 6.0625 36.671875 8.59375 
Q 40.09375 11.140625 42.09375 16.703125 
M 13.234375 30.90625 
L 42.1875 30.90625 
Q 41.609375 37.453125 38.875 40.71875 
Q 34.671875 45.796875 27.984375 45.796875 
Q 21.921875 45.796875 17.796875 41.75 
Q 13.671875 37.703125 13.234375 30.90625 
" id="ArialMT-65"/>
      <path d="M 40.234375 0 
L 40.234375 6.546875 
Q 35.296875 -1.171875 25.734375 -1.171875 
Q 19.53125 -1.171875 14.328125 2.25 
Q 9.125 5.671875 6.265625 11.796875 
Q 3.421875 17.921875 3.421875 25.875 
Q 3.421875 33.640625 6 39.96875 
Q 8.59375 46.296875 13.765625 49.65625 
Q 18.953125 53.03125 25.34375 53.03125 
Q 30.03125 53.03125 33.6875 51.046875 
Q 37.359375 49.078125 39.65625 45.90625 
L 39.65625 71.578125 
L 48.390625 71.578125 
L 48.390625 0 
z
M 12.453125 25.875 
Q 12.453125 15.921875 16.640625 10.984375 
Q 20.84375 6.0625 26.5625 6.0625 
Q 32.328125 6.0625 36.34375 10.765625 
Q 40.375 15.484375 40.375 25.140625 
Q 40.375 35.796875 36.265625 40.765625 
Q 32.171875 45.75 26.171875 45.75 
Q 20.3125 45.75 16.375 40.96875 
Q 12.453125 36.1875 12.453125 25.875 
" id="ArialMT-64"/>
      <path d="M 25.78125 7.859375 
L 27.046875 0.09375 
Q 23.34375 -0.6875 20.40625 -0.6875 
Q 15.625 -0.6875 12.984375 0.828125 
Q 10.359375 2.34375 9.28125 4.8125 
Q 8.203125 7.28125 8.203125 15.1875 
L 8.203125 45.015625 
L 1.765625 45.015625 
L 1.765625 51.859375 
L 8.203125 51.859375 
L 8.203125 64.703125 
L 16.9375 69.96875 
L 16.9375 51.859375 
L 25.78125 51.859375 
L 25.78125 45.015625 
L 16.9375 45.015625 
L 16.9375 14.703125 
Q 16.9375 10.9375 17.40625 9.859375 
Q 17.875 8.796875 18.921875 8.15625 
Q 19.96875 7.515625 21.921875 7.515625 
Q 23.390625 7.515625 25.78125 7.859375 
" id="ArialMT-74"/>
      <path d="M 40.578125 0 
L 40.578125 7.625 
Q 34.515625 -1.171875 24.125 -1.171875 
Q 19.53125 -1.171875 15.546875 0.578125 
Q 11.578125 2.34375 9.640625 5 
Q 7.71875 7.671875 6.9375 11.53125 
Q 6.390625 14.109375 6.390625 19.734375 
L 6.390625 51.859375 
L 15.1875 51.859375 
L 15.1875 23.09375 
Q 15.1875 16.21875 15.71875 13.8125 
Q 16.546875 10.359375 19.234375 8.375 
Q 21.921875 6.390625 25.875 6.390625 
Q 29.828125 6.390625 33.296875 8.421875 
Q 36.765625 10.453125 38.203125 13.9375 
Q 39.65625 17.4375 39.65625 24.078125 
L 39.65625 51.859375 
L 48.4375 51.859375 
L 48.4375 0 
z
" id="ArialMT-75"/>
      <path d="M 6.640625 61.46875 
L 6.640625 71.578125 
L 15.4375 71.578125 
L 15.4375 61.46875 
z
M 6.640625 0 
L 6.640625 51.859375 
L 15.4375 51.859375 
L 15.4375 0 
z
" id="ArialMT-69"/>
      <path d="M 6.59375 -19.875 
L 6.59375 51.859375 
L 14.59375 51.859375 
L 14.59375 45.125 
Q 17.4375 49.078125 21 51.046875 
Q 24.5625 53.03125 29.640625 53.03125 
Q 36.28125 53.03125 41.359375 49.609375 
Q 46.4375 46.1875 49.015625 39.953125 
Q 51.609375 33.734375 51.609375 26.3125 
Q 51.609375 18.359375 48.75 11.984375 
Q 45.90625 5.609375 40.453125 2.21875 
Q 35.015625 -1.171875 29 -1.171875 
Q 24.609375 -1.171875 21.109375 0.6875 
Q 17.625 2.546875 15.375 5.375 
L 15.375 -19.875 
z
M 14.546875 25.640625 
Q 14.546875 15.625 18.59375 10.84375 
Q 22.65625 6.0625 28.421875 6.0625 
Q 34.28125 6.0625 38.453125 11.015625 
Q 42.625 15.96875 42.625 26.375 
Q 42.625 36.28125 38.546875 41.203125 
Q 34.46875 46.140625 28.8125 46.140625 
Q 23.1875 46.140625 18.859375 40.890625 
Q 14.546875 35.640625 14.546875 25.640625 
" id="ArialMT-70"/>
      <path d="M 6.5 0 
L 6.5 51.859375 
L 14.40625 51.859375 
L 14.40625 44 
Q 17.4375 49.515625 20 51.265625 
Q 22.5625 53.03125 25.640625 53.03125 
Q 30.078125 53.03125 34.671875 50.203125 
L 31.640625 42.046875 
Q 28.421875 43.953125 25.203125 43.953125 
Q 22.3125 43.953125 20.015625 42.21875 
Q 17.71875 40.484375 16.75 37.40625 
Q 15.28125 32.71875 15.28125 27.15625 
L 15.28125 0 
z
" id="ArialMT-72"/>
      <path d="M 3.078125 15.484375 
L 11.765625 16.84375 
Q 12.5 11.625 15.84375 8.84375 
Q 19.1875 6.0625 25.203125 6.0625 
Q 31.25 6.0625 34.171875 8.515625 
Q 37.109375 10.984375 37.109375 14.3125 
Q 37.109375 17.28125 34.515625 19 
Q 32.71875 20.171875 25.53125 21.96875 
Q 15.875 24.421875 12.140625 26.203125 
Q 8.40625 27.984375 6.46875 31.125 
Q 4.546875 34.28125 4.546875 38.09375 
Q 4.546875 41.546875 6.125 44.5 
Q 7.71875 47.46875 10.453125 49.421875 
Q 12.5 50.921875 16.03125 51.96875 
Q 19.578125 53.03125 23.640625 53.03125 
Q 29.734375 53.03125 34.34375 51.265625 
Q 38.96875 49.515625 41.15625 46.5 
Q 43.359375 43.5 44.1875 38.484375 
L 35.59375 37.3125 
Q 35.015625 41.3125 32.203125 43.546875 
Q 29.390625 45.796875 24.265625 45.796875 
Q 18.21875 45.796875 15.625 43.796875 
Q 13.03125 41.796875 13.03125 39.109375 
Q 13.03125 37.40625 14.109375 36.03125 
Q 15.1875 34.625 17.484375 33.6875 
Q 18.796875 33.203125 25.25 31.453125 
Q 34.578125 28.953125 38.25 27.359375 
Q 41.9375 25.78125 44.03125 22.75 
Q 46.140625 19.734375 46.140625 15.234375 
Q 46.140625 10.84375 43.578125 6.953125 
Q 41.015625 3.078125 36.171875 0.953125 
Q 31.34375 -1.171875 25.25 -1.171875 
Q 15.140625 -1.171875 9.84375 3.03125 
Q 4.546875 7.234375 3.078125 15.484375 
" id="ArialMT-73"/>
      <path d="M 3.328125 25.921875 
Q 3.328125 40.328125 11.328125 47.265625 
Q 18.015625 53.03125 27.640625 53.03125 
Q 38.328125 53.03125 45.109375 46.015625 
Q 51.90625 39.015625 51.90625 26.65625 
Q 51.90625 16.65625 48.90625 10.90625 
Q 45.90625 5.171875 40.15625 2 
Q 34.421875 -1.171875 27.640625 -1.171875 
Q 16.75 -1.171875 10.03125 5.8125 
Q 3.328125 12.796875 3.328125 25.921875 
M 12.359375 25.921875 
Q 12.359375 15.96875 16.703125 11.015625 
Q 21.046875 6.0625 27.640625 6.0625 
Q 34.1875 6.0625 38.53125 11.03125 
Q 42.875 16.015625 42.875 26.21875 
Q 42.875 35.84375 38.5 40.796875 
Q 34.125 45.75 27.640625 45.75 
Q 21.046875 45.75 16.703125 40.8125 
Q 12.359375 35.890625 12.359375 25.921875 
" id="ArialMT-6f"/>
      <path d="M 6.59375 0 
L 6.59375 51.859375 
L 14.5 51.859375 
L 14.5 44.484375 
Q 20.21875 53.03125 31 53.03125 
Q 35.6875 53.03125 39.625 51.34375 
Q 43.5625 49.65625 45.515625 46.921875 
Q 47.46875 44.1875 48.25 40.4375 
Q 48.734375 37.984375 48.734375 31.890625 
L 48.734375 0 
L 39.9375 0 
L 39.9375 31.546875 
Q 39.9375 36.921875 38.90625 39.578125 
Q 37.890625 42.234375 35.28125 43.8125 
Q 32.671875 45.40625 29.15625 45.40625 
Q 23.53125 45.40625 19.453125 41.84375 
Q 15.375 38.28125 15.375 28.328125 
L 15.375 0 
z
" id="ArialMT-6e"/>
      <path d="M 6.59375 0 
L 6.59375 51.859375 
L 14.453125 51.859375 
L 14.453125 44.578125 
Q 16.890625 48.390625 20.9375 50.703125 
Q 25 53.03125 30.171875 53.03125 
Q 35.9375 53.03125 39.625 50.640625 
Q 43.3125 48.25 44.828125 43.953125 
Q 50.984375 53.03125 60.84375 53.03125 
Q 68.5625 53.03125 72.703125 48.75 
Q 76.859375 44.484375 76.859375 35.59375 
L 76.859375 0 
L 68.109375 0 
L 68.109375 32.671875 
Q 68.109375 37.9375 67.25 40.25 
Q 66.40625 42.578125 64.15625 43.984375 
Q 61.921875 45.40625 58.890625 45.40625 
Q 53.421875 45.40625 49.796875 41.765625 
Q 46.1875 38.140625 46.1875 30.125 
L 46.1875 0 
L 37.40625 0 
L 37.40625 33.6875 
Q 37.40625 39.546875 35.25 42.46875 
Q 33.109375 45.40625 28.21875 45.40625 
Q 24.515625 45.40625 21.359375 43.453125 
Q 18.21875 41.5 16.796875 37.734375 
Q 15.375 33.984375 15.375 26.90625 
L 15.375 0 
z
" id="ArialMT-6d"/>
      <path d="M 7.625 0 
L 7.625 71.578125 
L 17.328125 71.578125 
L 54.9375 15.375 
L 54.9375 71.578125 
L 64.015625 71.578125 
L 64.015625 0 
L 54.296875 0 
L 16.703125 56.25 
L 16.703125 0 
z
" id="ArialMT-4e"/>
      <path id="ArialMT-20"/>
     </defs>
     <g style="fill:#262626;" transform="translate(246.290859375 382.15078125)scale(0.11 -0.11)">
      <use xlink:href="#ArialMT-4e"/>
      <use x="72.216796875" xlink:href="#ArialMT-75"/>
      <use x="127.83203125" xlink:href="#ArialMT-6d"/>
      <use x="211.1328125" xlink:href="#ArialMT-62"/>
      <use x="266.748046875" xlink:href="#ArialMT-65"/>
      <use x="322.36328125" xlink:href="#ArialMT-72"/>
      <use x="355.6640625" xlink:href="#ArialMT-20"/>
      <use x="383.447265625" xlink:href="#ArialMT-6f"/>
      <use x="439.0625" xlink:href="#ArialMT-66"/>
      <use x="466.845703125" xlink:href="#ArialMT-20"/>
      <use x="494.62890625" xlink:href="#ArialMT-72"/>
      <use x="527.9296875" xlink:href="#ArialMT-61"/>
      <use x="583.544921875" xlink:href="#ArialMT-6e"/>
      <use x="639.16015625" xlink:href="#ArialMT-64"/>
      <use x="694.775390625" xlink:href="#ArialMT-6f"/>
      <use x="750.390625" xlink:href="#ArialMT-6d"/>
      <use x="833.69140625" xlink:href="#ArialMT-20"/>
      <use x="861.474609375" xlink:href="#ArialMT-70"/>
      <use x="917.08984375" xlink:href="#ArialMT-6f"/>
      <use x="972.705078125" xlink:href="#ArialMT-69"/>
      <use x="994.921875" xlink:href="#ArialMT-6e"/>
      <use x="1050.53710938" xlink:href="#ArialMT-74"/>
      <use x="1078.3203125" xlink:href="#ArialMT-73"/>
     </g>
    </g>
   </g>
   <g id="matplotlib.axis_2">
    <g id="ytick_1">
     <g id="line2d_69">
      <path clip-path="url(#p76d3e9df21)" d="M 53.6475 306.951025 
L 563.04 306.951025 
" style="fill:none;stroke:#ffffff;stroke-linecap:round;"/>
     </g>
     <g id="line2d_70"/>
     <g id="line2d_71"/>
     <g id="text_10">
      <!-- 0.92 -->
      <defs>
       <path d="M 5.46875 16.546875 
L 13.921875 17.328125 
Q 14.984375 11.375 18.015625 8.6875 
Q 21.046875 6 25.78125 6 
Q 29.828125 6 32.875 7.859375 
Q 35.9375 9.71875 37.890625 12.8125 
Q 39.84375 15.921875 41.15625 21.1875 
Q 42.484375 26.46875 42.484375 31.9375 
Q 42.484375 32.515625 42.4375 33.6875 
Q 39.796875 29.5 35.234375 26.875 
Q 30.671875 24.265625 25.34375 24.265625 
Q 16.453125 24.265625 10.296875 30.703125 
Q 4.15625 37.15625 4.15625 47.703125 
Q 4.15625 58.59375 10.578125 65.234375 
Q 17 71.875 26.65625 71.875 
Q 33.640625 71.875 39.421875 68.109375 
Q 45.21875 64.359375 48.21875 57.390625 
Q 51.21875 50.4375 51.21875 37.25 
Q 51.21875 23.53125 48.234375 15.40625 
Q 45.265625 7.28125 39.375 3.03125 
Q 33.5 -1.21875 25.59375 -1.21875 
Q 17.1875 -1.21875 11.859375 3.4375 
Q 6.546875 8.109375 5.46875 16.546875 
M 41.453125 48.140625 
Q 41.453125 55.71875 37.421875 60.15625 
Q 33.40625 64.59375 27.734375 64.59375 
Q 21.875 64.59375 17.53125 59.8125 
Q 13.1875 55.03125 13.1875 47.40625 
Q 13.1875 40.578125 17.3125 36.296875 
Q 21.4375 32.03125 27.484375 32.03125 
Q 33.59375 32.03125 37.515625 36.296875 
Q 41.453125 40.578125 41.453125 48.140625 
" id="ArialMT-39"/>
       <path d="M 9.078125 0 
L 9.078125 10.015625 
L 19.09375 10.015625 
L 19.09375 0 
z
" id="ArialMT-2e"/>
      </defs>
      <g style="fill:#262626;" transform="translate(27.1865625 309.536181641)scale(0.1 -0.1)">
       <use xlink:href="#ArialMT-30"/>
       <use x="55.615234375" xlink:href="#ArialMT-2e"/>
       <use x="83.3984375" xlink:href="#ArialMT-39"/>
       <use x="139.013671875" xlink:href="#ArialMT-32"/>
      </g>
     </g>
    </g>
    <g id="ytick_2">
     <g id="line2d_72">
      <path clip-path="url(#p76d3e9df21)" d="M 53.6475 236.109814 
L 563.04 236.109814 
" style="fill:none;stroke:#ffffff;stroke-linecap:round;"/>
     </g>
     <g id="line2d_73"/>
     <g id="line2d_74"/>
     <g id="text_11">
      <!-- 0.94 -->
      <defs>
       <path d="M 32.328125 0 
L 32.328125 17.140625 
L 1.265625 17.140625 
L 1.265625 25.203125 
L 33.9375 71.578125 
L 41.109375 71.578125 
L 41.109375 25.203125 
L 50.78125 25.203125 
L 50.78125 17.140625 
L 41.109375 17.140625 
L 41.109375 0 
z
M 32.328125 25.203125 
L 32.328125 57.46875 
L 9.90625 25.203125 
z
" id="ArialMT-34"/>
      </defs>
      <g style="fill:#262626;" transform="translate(27.1865625 238.694970703)scale(0.1 -0.1)">
       <use xlink:href="#ArialMT-30"/>
       <use x="55.615234375" xlink:href="#ArialMT-2e"/>
       <use x="83.3984375" xlink:href="#ArialMT-39"/>
       <use x="139.013671875" xlink:href="#ArialMT-34"/>
      </g>
     </g>
    </g>
    <g id="ytick_3">
     <g id="line2d_75">
      <path clip-path="url(#p76d3e9df21)" d="M 53.6475 165.268604 
L 563.04 165.268604 
" style="fill:none;stroke:#ffffff;stroke-linecap:round;"/>
     </g>
     <g id="line2d_76"/>
     <g id="line2d_77"/>
     <g id="text_12">
      <!-- 0.96 -->
      <defs>
       <path d="M 49.75 54.046875 
L 41.015625 53.375 
Q 39.84375 58.546875 37.703125 60.890625 
Q 34.125 64.65625 28.90625 64.65625 
Q 24.703125 64.65625 21.53125 62.3125 
Q 17.390625 59.28125 14.984375 53.46875 
Q 12.59375 47.65625 12.5 36.921875 
Q 15.671875 41.75 20.265625 44.09375 
Q 24.859375 46.4375 29.890625 46.4375 
Q 38.671875 46.4375 44.84375 39.96875 
Q 51.03125 33.5 51.03125 23.25 
Q 51.03125 16.5 48.125 10.71875 
Q 45.21875 4.9375 40.140625 1.859375 
Q 35.0625 -1.21875 28.609375 -1.21875 
Q 17.625 -1.21875 10.6875 6.859375 
Q 3.765625 14.9375 3.765625 33.5 
Q 3.765625 54.25 11.421875 63.671875 
Q 18.109375 71.875 29.4375 71.875 
Q 37.890625 71.875 43.28125 67.140625 
Q 48.6875 62.40625 49.75 54.046875 
M 13.875 23.1875 
Q 13.875 18.65625 15.796875 14.5 
Q 17.71875 10.359375 21.1875 8.171875 
Q 24.65625 6 28.46875 6 
Q 34.03125 6 38.03125 10.484375 
Q 42.046875 14.984375 42.046875 22.703125 
Q 42.046875 30.125 38.078125 34.390625 
Q 34.125 38.671875 28.125 38.671875 
Q 22.171875 38.671875 18.015625 34.390625 
Q 13.875 30.125 13.875 23.1875 
" id="ArialMT-36"/>
      </defs>
      <g style="fill:#262626;" transform="translate(27.1865625 167.853759766)scale(0.1 -0.1)">
       <use xlink:href="#ArialMT-30"/>
       <use x="55.615234375" xlink:href="#ArialMT-2e"/>
       <use x="83.3984375" xlink:href="#ArialMT-39"/>
       <use x="139.013671875" xlink:href="#ArialMT-36"/>
      </g>
     </g>
    </g>
    <g id="ytick_4">
     <g id="line2d_78">
      <path clip-path="url(#p76d3e9df21)" d="M 53.6475 94.427393 
L 563.04 94.427393 
" style="fill:none;stroke:#ffffff;stroke-linecap:round;"/>
     </g>
     <g id="line2d_79"/>
     <g id="line2d_80"/>
     <g id="text_13">
      <!-- 0.98 -->
      <defs>
       <path d="M 17.671875 38.8125 
Q 12.203125 40.828125 9.5625 44.53125 
Q 6.9375 48.25 6.9375 53.421875 
Q 6.9375 61.234375 12.546875 66.546875 
Q 18.171875 71.875 27.484375 71.875 
Q 36.859375 71.875 42.578125 66.421875 
Q 48.296875 60.984375 48.296875 53.171875 
Q 48.296875 48.1875 45.671875 44.5 
Q 43.0625 40.828125 37.75 38.8125 
Q 44.34375 36.671875 47.78125 31.875 
Q 51.21875 27.09375 51.21875 20.453125 
Q 51.21875 11.28125 44.71875 5.03125 
Q 38.234375 -1.21875 27.640625 -1.21875 
Q 17.046875 -1.21875 10.546875 5.046875 
Q 4.046875 11.328125 4.046875 20.703125 
Q 4.046875 27.6875 7.59375 32.390625 
Q 11.140625 37.109375 17.671875 38.8125 
M 15.921875 53.71875 
Q 15.921875 48.640625 19.1875 45.40625 
Q 22.46875 42.1875 27.6875 42.1875 
Q 32.765625 42.1875 36.015625 45.375 
Q 39.265625 48.578125 39.265625 53.21875 
Q 39.265625 58.0625 35.90625 61.359375 
Q 32.5625 64.65625 27.59375 64.65625 
Q 22.5625 64.65625 19.234375 61.421875 
Q 15.921875 58.203125 15.921875 53.71875 
M 13.09375 20.65625 
Q 13.09375 16.890625 14.875 13.375 
Q 16.65625 9.859375 20.171875 7.921875 
Q 23.6875 6 27.734375 6 
Q 34.03125 6 38.125 10.046875 
Q 42.234375 14.109375 42.234375 20.359375 
Q 42.234375 26.703125 38.015625 30.859375 
Q 33.796875 35.015625 27.4375 35.015625 
Q 21.234375 35.015625 17.15625 30.90625 
Q 13.09375 26.8125 13.09375 20.65625 
" id="ArialMT-38"/>
      </defs>
      <g style="fill:#262626;" transform="translate(27.1865625 97.0125488281)scale(0.1 -0.1)">
       <use xlink:href="#ArialMT-30"/>
       <use x="55.615234375" xlink:href="#ArialMT-2e"/>
       <use x="83.3984375" xlink:href="#ArialMT-39"/>
       <use x="139.013671875" xlink:href="#ArialMT-38"/>
      </g>
     </g>
    </g>
    <g id="ytick_5">
     <g id="line2d_81">
      <path clip-path="url(#p76d3e9df21)" d="M 53.6475 23.586182 
L 563.04 23.586182 
" style="fill:none;stroke:#ffffff;stroke-linecap:round;"/>
     </g>
     <g id="line2d_82"/>
     <g id="line2d_83"/>
     <g id="text_14">
      <!-- 1.00 -->
      <g style="fill:#262626;" transform="translate(27.1865625 26.1713378906)scale(0.1 -0.1)">
       <use xlink:href="#ArialMT-31"/>
       <use x="55.615234375" xlink:href="#ArialMT-2e"/>
       <use x="83.3984375" xlink:href="#ArialMT-30"/>
       <use x="139.013671875" xlink:href="#ArialMT-30"/>
      </g>
     </g>
    </g>
    <g id="text_15">
     <!-- Pearson's correlation coefficient -->
     <defs>
      <path d="M 6.640625 46.234375 
L 4.390625 59.625 
L 4.390625 71.578125 
L 14.40625 71.578125 
L 14.40625 59.625 
L 12.0625 46.234375 
z
" id="ArialMT-27"/>
      <path d="M 40.4375 19 
L 49.078125 17.875 
Q 47.65625 8.9375 41.8125 3.875 
Q 35.984375 -1.171875 27.484375 -1.171875 
Q 16.84375 -1.171875 10.375 5.78125 
Q 3.90625 12.75 3.90625 25.734375 
Q 3.90625 34.125 6.6875 40.421875 
Q 9.46875 46.734375 15.15625 49.875 
Q 20.84375 53.03125 27.546875 53.03125 
Q 35.984375 53.03125 41.359375 48.75 
Q 46.734375 44.484375 48.25 36.625 
L 39.703125 35.296875 
Q 38.484375 40.53125 35.375 43.15625 
Q 32.28125 45.796875 27.875 45.796875 
Q 21.234375 45.796875 17.078125 41.03125 
Q 12.9375 36.28125 12.9375 25.984375 
Q 12.9375 15.53125 16.9375 10.796875 
Q 20.953125 6.0625 27.390625 6.0625 
Q 32.5625 6.0625 36.03125 9.234375 
Q 39.5 12.40625 40.4375 19 
" id="ArialMT-63"/>
      <path d="M 7.71875 0 
L 7.71875 71.578125 
L 34.71875 71.578125 
Q 41.84375 71.578125 45.609375 70.90625 
Q 50.875 70.015625 54.4375 67.546875 
Q 58.015625 65.09375 60.1875 60.640625 
Q 62.359375 56.203125 62.359375 50.875 
Q 62.359375 41.75 56.546875 35.421875 
Q 50.734375 29.109375 35.546875 29.109375 
L 17.1875 29.109375 
L 17.1875 0 
z
M 17.1875 37.546875 
L 35.6875 37.546875 
Q 44.875 37.546875 48.734375 40.96875 
Q 52.59375 44.390625 52.59375 50.59375 
Q 52.59375 55.078125 50.3125 58.265625 
Q 48.046875 61.46875 44.34375 62.5 
Q 41.9375 63.140625 35.5 63.140625 
L 17.1875 63.140625 
z
" id="ArialMT-50"/>
      <path d="M 6.390625 0 
L 6.390625 71.578125 
L 15.1875 71.578125 
L 15.1875 0 
z
" id="ArialMT-6c"/>
     </defs>
     <g style="fill:#262626;" transform="translate(20.0003125 260.7575)rotate(-90.0)scale(0.11 -0.11)">
      <use xlink:href="#ArialMT-50"/>
      <use x="66.69921875" xlink:href="#ArialMT-65"/>
      <use x="122.314453125" xlink:href="#ArialMT-61"/>
      <use x="177.9296875" xlink:href="#ArialMT-72"/>
      <use x="211.23046875" xlink:href="#ArialMT-73"/>
      <use x="261.23046875" xlink:href="#ArialMT-6f"/>
      <use x="316.845703125" xlink:href="#ArialMT-6e"/>
      <use x="372.4609375" xlink:href="#ArialMT-27"/>
      <use x="391.552734375" xlink:href="#ArialMT-73"/>
      <use x="441.552734375" xlink:href="#ArialMT-20"/>
      <use x="469.3359375" xlink:href="#ArialMT-63"/>
      <use x="519.3359375" xlink:href="#ArialMT-6f"/>
      <use x="574.951171875" xlink:href="#ArialMT-72"/>
      <use x="608.251953125" xlink:href="#ArialMT-72"/>
      <use x="641.552734375" xlink:href="#ArialMT-65"/>
      <use x="697.16796875" xlink:href="#ArialMT-6c"/>
      <use x="719.384765625" xlink:href="#ArialMT-61"/>
      <use x="775.0" xlink:href="#ArialMT-74"/>
      <use x="802.783203125" xlink:href="#ArialMT-69"/>
      <use x="825.0" xlink:href="#ArialMT-6f"/>
      <use x="880.615234375" xlink:href="#ArialMT-6e"/>
      <use x="936.23046875" xlink:href="#ArialMT-20"/>
      <use x="964.013671875" xlink:href="#ArialMT-63"/>
      <use x="1014.01367188" xlink:href="#ArialMT-6f"/>
      <use x="1069.62890625" xlink:href="#ArialMT-65"/>
      <use x="1125.24414062" xlink:href="#ArialMT-66"/>
      <use x="1153.01171875" xlink:href="#ArialMT-66"/>
      <use x="1180.79492188" xlink:href="#ArialMT-69"/>
      <use x="1203.01171875" xlink:href="#ArialMT-63"/>
      <use x="1253.01171875" xlink:href="#ArialMT-69"/>
      <use x="1275.22851562" xlink:href="#ArialMT-65"/>
      <use x="1330.84375" xlink:href="#ArialMT-6e"/>
      <use x="1386.45898438" xlink:href="#ArialMT-74"/>
     </g>
    </g>
   </g>
   <g id="line2d_84">
    <defs>
     <path d="M 0 3.5 
C 0.928211 3.5 1.81853 3.131218 2.474874 2.474874 
C 3.131218 1.81853 3.5 0.928211 3.5 0 
C 3.5 -0.928211 3.131218 -1.81853 2.474874 -2.474874 
C 1.81853 -3.131218 0.928211 -3.5 0 -3.5 
C -0.928211 -3.5 -1.81853 -3.131218 -2.474874 -2.474874 
C -3.131218 -1.81853 -3.5 -0.928211 -3.5 0 
C -3.5 0.928211 -3.131218 1.81853 -2.474874 2.474874 
C -1.81853 3.131218 -0.928211 3.5 0 3.5 
z
" id="mc51e1a3389"/>
    </defs>
    <g clip-path="url(#p76d3e9df21)">
     <use style="fill:#4c72b0;" x="73.4343542687" xlink:href="#mc51e1a3389" y="151.296085505"/>
     <use style="fill:#4c72b0;" x="73.4343542687" xlink:href="#mc51e1a3389" y="76.6856168723"/>
     <use style="fill:#4c72b0;" x="73.4343542687" xlink:href="#mc51e1a3389" y="98.1146871538"/>
     <use style="fill:#4c72b0;" x="73.4343542687" xlink:href="#mc51e1a3389" y="50.5485878333"/>
     <use style="fill:#4c72b0;" x="73.4343542687" xlink:href="#mc51e1a3389" y="95.2943440231"/>
     <use style="fill:#4c72b0;" x="73.4343542687" xlink:href="#mc51e1a3389" y="93.2489817278"/>
     <use style="fill:#4c72b0;" x="73.4343542687" xlink:href="#mc51e1a3389" y="75.3343071785"/>
     <use style="fill:#4c72b0;" x="73.4343542687" xlink:href="#mc51e1a3389" y="153.684359315"/>
     <use style="fill:#4c72b0;" x="73.4343542687" xlink:href="#mc51e1a3389" y="85.0478769037"/>
     <use style="fill:#4c72b0;" x="73.4343542687" xlink:href="#mc51e1a3389" y="56.6862556735"/>
     <use style="fill:#4c72b0;" x="73.4343542687" xlink:href="#mc51e1a3389" y="76.5484058949"/>
     <use style="fill:#4c72b0;" x="73.4343542687" xlink:href="#mc51e1a3389" y="52.0201095888"/>
     <use style="fill:#4c72b0;" x="73.4343542687" xlink:href="#mc51e1a3389" y="131.412650926"/>
     <use style="fill:#4c72b0;" x="73.4343542687" xlink:href="#mc51e1a3389" y="78.326090786"/>
     <use style="fill:#4c72b0;" x="73.4343542687" xlink:href="#mc51e1a3389" y="83.6592614921"/>
     <use style="fill:#4c72b0;" x="73.4343542687" xlink:href="#mc51e1a3389" y="107.81204767"/>
     <use style="fill:#4c72b0;" x="73.4343542687" xlink:href="#mc51e1a3389" y="95.636059406"/>
     <use style="fill:#4c72b0;" x="73.4343542687" xlink:href="#mc51e1a3389" y="176.520687146"/>
     <use style="fill:#4c72b0;" x="73.4343542687" xlink:href="#mc51e1a3389" y="145.364730697"/>
     <use style="fill:#4c72b0;" x="73.4343542687" xlink:href="#mc51e1a3389" y="196.724662931"/>
     <use style="fill:#4c72b0;" x="73.4343542687" xlink:href="#mc51e1a3389" y="104.726116817"/>
     <use style="fill:#4c72b0;" x="73.4343542687" xlink:href="#mc51e1a3389" y="65.7927733717"/>
     <use style="fill:#4c72b0;" x="73.4343542687" xlink:href="#mc51e1a3389" y="81.7301132525"/>
     <use style="fill:#4c72b0;" x="73.4343542687" xlink:href="#mc51e1a3389" y="110.063892385"/>
     <use style="fill:#4c72b0;" x="73.4343542687" xlink:href="#mc51e1a3389" y="70.7153259942"/>
     <use style="fill:#4c72b0;" x="73.4343542687" xlink:href="#mc51e1a3389" y="54.4522250888"/>
     <use style="fill:#4c72b0;" x="73.4343542687" xlink:href="#mc51e1a3389" y="153.730506979"/>
     <use style="fill:#4c72b0;" x="73.4343542687" xlink:href="#mc51e1a3389" y="66.465905369"/>
     <use style="fill:#4c72b0;" x="73.4343542687" xlink:href="#mc51e1a3389" y="159.205439383"/>
     <use style="fill:#4c72b0;" x="73.4343542687" xlink:href="#mc51e1a3389" y="95.7373656972"/>
     <use style="fill:#4c72b0;" x="73.4343542687" xlink:href="#mc51e1a3389" y="64.7558295934"/>
     <use style="fill:#4c72b0;" x="73.4343542687" xlink:href="#mc51e1a3389" y="81.1386789605"/>
     <use style="fill:#4c72b0;" x="73.4343542687" xlink:href="#mc51e1a3389" y="323.220789156"/>
     <use style="fill:#4c72b0;" x="73.4343542687" xlink:href="#mc51e1a3389" y="163.773257911"/>
     <use style="fill:#4c72b0;" x="73.4343542687" xlink:href="#mc51e1a3389" y="161.603710554"/>
     <use style="fill:#4c72b0;" x="73.4343542687" xlink:href="#mc51e1a3389" y="56.9418425759"/>
     <use style="fill:#4c72b0;" x="73.4343542687" xlink:href="#mc51e1a3389" y="104.558177248"/>
     <use style="fill:#4c72b0;" x="73.4343542687" xlink:href="#mc51e1a3389" y="63.8123046885"/>
     <use style="fill:#4c72b0;" x="73.4343542687" xlink:href="#mc51e1a3389" y="97.0937505509"/>
     <use style="fill:#4c72b0;" x="73.4343542687" xlink:href="#mc51e1a3389" y="210.272751443"/>
     <use style="fill:#4c72b0;" x="73.4343542687" xlink:href="#mc51e1a3389" y="112.806691369"/>
     <use style="fill:#4c72b0;" x="73.4343542687" xlink:href="#mc51e1a3389" y="125.407483311"/>
     <use style="fill:#4c72b0;" x="73.4343542687" xlink:href="#mc51e1a3389" y="145.142639022"/>
     <use style="fill:#4c72b0;" x="73.4343542687" xlink:href="#mc51e1a3389" y="63.7196584298"/>
     <use style="fill:#4c72b0;" x="73.4343542687" xlink:href="#mc51e1a3389" y="79.8979046858"/>
     <use style="fill:#4c72b0;" x="73.4343542687" xlink:href="#mc51e1a3389" y="102.274834154"/>
     <use style="fill:#4c72b0;" x="73.4343542687" xlink:href="#mc51e1a3389" y="80.713140704"/>
     <use style="fill:#4c72b0;" x="73.4343542687" xlink:href="#mc51e1a3389" y="195.93776706"/>
     <use style="fill:#4c72b0;" x="73.4343542687" xlink:href="#mc51e1a3389" y="136.106836809"/>
    </g>
   </g>
   <g id="line2d_85">
    <defs>
     <path d="M 0 3.5 
C 0.928211 3.5 1.81853 3.131218 2.474874 2.474874 
C 3.131218 1.81853 3.5 0.928211 3.5 0 
C 3.5 -0.928211 3.131218 -1.81853 2.474874 -2.474874 
C 1.81853 -3.131218 0.928211 -3.5 0 -3.5 
C -0.928211 -3.5 -1.81853 -3.131218 -2.474874 -2.474874 
C -3.131218 -1.81853 -3.5 -0.928211 -3.5 0 
C -3.5 0.928211 -3.131218 1.81853 -2.474874 2.474874 
C -1.81853 3.131218 -0.928211 3.5 0 3.5 
z
" id="m28e2eba66b"/>
    </defs>
    <g clip-path="url(#p76d3e9df21)">
     <use style="fill:#55a868;" x="134.897937544" xlink:href="#m28e2eba66b" y="105.227408659"/>
     <use style="fill:#55a868;" x="134.897937544" xlink:href="#m28e2eba66b" y="79.0700369962"/>
     <use style="fill:#55a868;" x="134.897937544" xlink:href="#m28e2eba66b" y="62.5640002847"/>
     <use style="fill:#55a868;" x="134.897937544" xlink:href="#m28e2eba66b" y="44.587679193"/>
     <use style="fill:#55a868;" x="134.897937544" xlink:href="#m28e2eba66b" y="59.9805655906"/>
     <use style="fill:#55a868;" x="134.897937544" xlink:href="#m28e2eba66b" y="54.8285656145"/>
     <use style="fill:#55a868;" x="134.897937544" xlink:href="#m28e2eba66b" y="82.9659817179"/>
     <use style="fill:#55a868;" x="134.897937544" xlink:href="#m28e2eba66b" y="81.0999016802"/>
     <use style="fill:#55a868;" x="134.897937544" xlink:href="#m28e2eba66b" y="62.0248664544"/>
     <use style="fill:#55a868;" x="134.897937544" xlink:href="#m28e2eba66b" y="111.825574027"/>
     <use style="fill:#55a868;" x="134.897937544" xlink:href="#m28e2eba66b" y="84.2790883308"/>
     <use style="fill:#55a868;" x="134.897937544" xlink:href="#m28e2eba66b" y="55.1545101443"/>
     <use style="fill:#55a868;" x="134.897937544" xlink:href="#m28e2eba66b" y="75.0706939552"/>
     <use style="fill:#55a868;" x="134.897937544" xlink:href="#m28e2eba66b" y="67.292565348"/>
     <use style="fill:#55a868;" x="134.897937544" xlink:href="#m28e2eba66b" y="57.7825826233"/>
     <use style="fill:#55a868;" x="134.897937544" xlink:href="#m28e2eba66b" y="70.681013835"/>
     <use style="fill:#55a868;" x="134.897937544" xlink:href="#m28e2eba66b" y="54.504987502"/>
     <use style="fill:#55a868;" x="134.897937544" xlink:href="#m28e2eba66b" y="94.9151408725"/>
     <use style="fill:#55a868;" x="134.897937544" xlink:href="#m28e2eba66b" y="92.4598170755"/>
     <use style="fill:#55a868;" x="134.897937544" xlink:href="#m28e2eba66b" y="121.172534837"/>
     <use style="fill:#55a868;" x="134.897937544" xlink:href="#m28e2eba66b" y="69.5696347706"/>
     <use style="fill:#55a868;" x="134.897937544" xlink:href="#m28e2eba66b" y="61.3047713876"/>
     <use style="fill:#55a868;" x="134.897937544" xlink:href="#m28e2eba66b" y="105.962178132"/>
     <use style="fill:#55a868;" x="134.897937544" xlink:href="#m28e2eba66b" y="81.1889736739"/>
     <use style="fill:#55a868;" x="134.897937544" xlink:href="#m28e2eba66b" y="85.7574293274"/>
     <use style="fill:#55a868;" x="134.897937544" xlink:href="#m28e2eba66b" y="83.7644815255"/>
     <use style="fill:#55a868;" x="134.897937544" xlink:href="#m28e2eba66b" y="86.1095197656"/>
     <use style="fill:#55a868;" x="134.897937544" xlink:href="#m28e2eba66b" y="39.0877284779"/>
     <use style="fill:#55a868;" x="134.897937544" xlink:href="#m28e2eba66b" y="56.7541657155"/>
     <use style="fill:#55a868;" x="134.897937544" xlink:href="#m28e2eba66b" y="55.6810415336"/>
     <use style="fill:#55a868;" x="134.897937544" xlink:href="#m28e2eba66b" y="61.8027279372"/>
     <use style="fill:#55a868;" x="134.897937544" xlink:href="#m28e2eba66b" y="73.2766074598"/>
     <use style="fill:#55a868;" x="134.897937544" xlink:href="#m28e2eba66b" y="133.699811788"/>
     <use style="fill:#55a868;" x="134.897937544" xlink:href="#m28e2eba66b" y="57.7312980118"/>
     <use style="fill:#55a868;" x="134.897937544" xlink:href="#m28e2eba66b" y="59.5338936118"/>
     <use style="fill:#55a868;" x="134.897937544" xlink:href="#m28e2eba66b" y="64.0744238818"/>
     <use style="fill:#55a868;" x="134.897937544" xlink:href="#m28e2eba66b" y="52.1805189207"/>
     <use style="fill:#55a868;" x="134.897937544" xlink:href="#m28e2eba66b" y="37.0925073516"/>
     <use style="fill:#55a868;" x="134.897937544" xlink:href="#m28e2eba66b" y="66.1544882391"/>
     <use style="fill:#55a868;" x="134.897937544" xlink:href="#m28e2eba66b" y="70.964816867"/>
     <use style="fill:#55a868;" x="134.897937544" xlink:href="#m28e2eba66b" y="67.3687601516"/>
     <use style="fill:#55a868;" x="134.897937544" xlink:href="#m28e2eba66b" y="94.1373784324"/>
     <use style="fill:#55a868;" x="134.897937544" xlink:href="#m28e2eba66b" y="76.5680754737"/>
     <use style="fill:#55a868;" x="134.897937544" xlink:href="#m28e2eba66b" y="60.5987926977"/>
     <use style="fill:#55a868;" x="134.897937544" xlink:href="#m28e2eba66b" y="65.1129329248"/>
     <use style="fill:#55a868;" x="134.897937544" xlink:href="#m28e2eba66b" y="78.2487982601"/>
     <use style="fill:#55a868;" x="134.897937544" xlink:href="#m28e2eba66b" y="62.3633648656"/>
     <use style="fill:#55a868;" x="134.897937544" xlink:href="#m28e2eba66b" y="98.4426418389"/>
     <use style="fill:#55a868;" x="134.897937544" xlink:href="#m28e2eba66b" y="44.9156382528"/>
    </g>
   </g>
   <g id="line2d_86">
    <defs>
     <path d="M 0 3.5 
C 0.928211 3.5 1.81853 3.131218 2.474874 2.474874 
C 3.131218 1.81853 3.5 0.928211 3.5 0 
C 3.5 -0.928211 3.131218 -1.81853 2.474874 -2.474874 
C 1.81853 -3.131218 0.928211 -3.5 0 -3.5 
C -0.928211 -3.5 -1.81853 -3.131218 -2.474874 -2.474874 
C -3.131218 -1.81853 -3.5 -0.928211 -3.5 0 
C -3.5 0.928211 -3.131218 1.81853 -2.474874 2.474874 
C -1.81853 3.131218 -0.928211 3.5 0 3.5 
z
" id="m4ab72b20ab"/>
    </defs>
    <g clip-path="url(#p76d3e9df21)">
     <use style="fill:#c44e52;" x="216.148375087" xlink:href="#m4ab72b20ab" y="77.1835012409"/>
     <use style="fill:#c44e52;" x="216.148375087" xlink:href="#m4ab72b20ab" y="74.7135554107"/>
     <use style="fill:#c44e52;" x="216.148375087" xlink:href="#m4ab72b20ab" y="49.8740584005"/>
     <use style="fill:#c44e52;" x="216.148375087" xlink:href="#m4ab72b20ab" y="34.5621782498"/>
     <use style="fill:#c44e52;" x="216.148375087" xlink:href="#m4ab72b20ab" y="35.5367443282"/>
     <use style="fill:#c44e52;" x="216.148375087" xlink:href="#m4ab72b20ab" y="58.6921087612"/>
     <use style="fill:#c44e52;" x="216.148375087" xlink:href="#m4ab72b20ab" y="69.2683539011"/>
     <use style="fill:#c44e52;" x="216.148375087" xlink:href="#m4ab72b20ab" y="43.0478051022"/>
     <use style="fill:#c44e52;" x="216.148375087" xlink:href="#m4ab72b20ab" y="40.8281180933"/>
     <use style="fill:#c44e52;" x="216.148375087" xlink:href="#m4ab72b20ab" y="88.9548396784"/>
     <use style="fill:#c44e52;" x="216.148375087" xlink:href="#m4ab72b20ab" y="71.527383843"/>
     <use style="fill:#c44e52;" x="216.148375087" xlink:href="#m4ab72b20ab" y="44.5309295026"/>
     <use style="fill:#c44e52;" x="216.148375087" xlink:href="#m4ab72b20ab" y="37.3793382269"/>
     <use style="fill:#c44e52;" x="216.148375087" xlink:href="#m4ab72b20ab" y="45.9294968111"/>
     <use style="fill:#c44e52;" x="216.148375087" xlink:href="#m4ab72b20ab" y="46.9088689593"/>
     <use style="fill:#c44e52;" x="216.148375087" xlink:href="#m4ab72b20ab" y="46.2498640637"/>
     <use style="fill:#c44e52;" x="216.148375087" xlink:href="#m4ab72b20ab" y="41.2433784855"/>
     <use style="fill:#c44e52;" x="216.148375087" xlink:href="#m4ab72b20ab" y="43.9981369303"/>
     <use style="fill:#c44e52;" x="216.148375087" xlink:href="#m4ab72b20ab" y="42.6740215321"/>
     <use style="fill:#c44e52;" x="216.148375087" xlink:href="#m4ab72b20ab" y="32.8393424009"/>
     <use style="fill:#c44e52;" x="216.148375087" xlink:href="#m4ab72b20ab" y="50.0910374521"/>
     <use style="fill:#c44e52;" x="216.148375087" xlink:href="#m4ab72b20ab" y="33.0583924923"/>
     <use style="fill:#c44e52;" x="216.148375087" xlink:href="#m4ab72b20ab" y="30.5687420427"/>
     <use style="fill:#c44e52;" x="216.148375087" xlink:href="#m4ab72b20ab" y="52.273260211"/>
     <use style="fill:#c44e52;" x="216.148375087" xlink:href="#m4ab72b20ab" y="30.8971656174"/>
     <use style="fill:#c44e52;" x="216.148375087" xlink:href="#m4ab72b20ab" y="45.8063244039"/>
     <use style="fill:#c44e52;" x="216.148375087" xlink:href="#m4ab72b20ab" y="46.6357213251"/>
     <use style="fill:#c44e52;" x="216.148375087" xlink:href="#m4ab72b20ab" y="41.5096152098"/>
     <use style="fill:#c44e52;" x="216.148375087" xlink:href="#m4ab72b20ab" y="41.6065890609"/>
     <use style="fill:#c44e52;" x="216.148375087" xlink:href="#m4ab72b20ab" y="34.9364965948"/>
     <use style="fill:#c44e52;" x="216.148375087" xlink:href="#m4ab72b20ab" y="45.5380573222"/>
     <use style="fill:#c44e52;" x="216.148375087" xlink:href="#m4ab72b20ab" y="54.6253539149"/>
     <use style="fill:#c44e52;" x="216.148375087" xlink:href="#m4ab72b20ab" y="37.9380119528"/>
     <use style="fill:#c44e52;" x="216.148375087" xlink:href="#m4ab72b20ab" y="43.6809053698"/>
     <use style="fill:#c44e52;" x="216.148375087" xlink:href="#m4ab72b20ab" y="34.3549228884"/>
     <use style="fill:#c44e52;" x="216.148375087" xlink:href="#m4ab72b20ab" y="33.1782830403"/>
     <use style="fill:#c44e52;" x="216.148375087" xlink:href="#m4ab72b20ab" y="44.7652054105"/>
     <use style="fill:#c44e52;" x="216.148375087" xlink:href="#m4ab72b20ab" y="45.9750520381"/>
     <use style="fill:#c44e52;" x="216.148375087" xlink:href="#m4ab72b20ab" y="49.9700545229"/>
     <use style="fill:#c44e52;" x="216.148375087" xlink:href="#m4ab72b20ab" y="39.628189881"/>
     <use style="fill:#c44e52;" x="216.148375087" xlink:href="#m4ab72b20ab" y="48.0458743497"/>
     <use style="fill:#c44e52;" x="216.148375087" xlink:href="#m4ab72b20ab" y="49.6612342395"/>
     <use style="fill:#c44e52;" x="216.148375087" xlink:href="#m4ab72b20ab" y="39.3357892567"/>
     <use style="fill:#c44e52;" x="216.148375087" xlink:href="#m4ab72b20ab" y="44.2137266455"/>
     <use style="fill:#c44e52;" x="216.148375087" xlink:href="#m4ab72b20ab" y="55.9030186584"/>
     <use style="fill:#c44e52;" x="216.148375087" xlink:href="#m4ab72b20ab" y="64.0944681685"/>
     <use style="fill:#c44e52;" x="216.148375087" xlink:href="#m4ab72b20ab" y="38.3981297373"/>
     <use style="fill:#c44e52;" x="216.148375087" xlink:href="#m4ab72b20ab" y="52.6279388364"/>
     <use style="fill:#c44e52;" x="216.148375087" xlink:href="#m4ab72b20ab" y="31.8327083254"/>
    </g>
   </g>
   <g id="line2d_87">
    <defs>
     <path d="M 0 3.5 
C 0.928211 3.5 1.81853 3.131218 2.474874 2.474874 
C 3.131218 1.81853 3.5 0.928211 3.5 0 
C 3.5 -0.928211 3.131218 -1.81853 2.474874 -2.474874 
C 1.81853 -3.131218 0.928211 -3.5 0 -3.5 
C -0.928211 -3.5 -1.81853 -3.131218 -2.474874 -2.474874 
C -3.131218 -1.81853 -3.5 -0.928211 -3.5 0 
C -3.5 0.928211 -3.131218 1.81853 -2.474874 2.474874 
C -1.81853 3.131218 -0.928211 3.5 0 3.5 
z
" id="m610f25113b"/>
    </defs>
    <g clip-path="url(#p76d3e9df21)">
     <use style="fill:#8172b2;" x="277.611958362" xlink:href="#m610f25113b" y="39.8524419587"/>
     <use style="fill:#8172b2;" x="277.611958362" xlink:href="#m610f25113b" y="52.707443944"/>
     <use style="fill:#8172b2;" x="277.611958362" xlink:href="#m610f25113b" y="39.4486767452"/>
     <use style="fill:#8172b2;" x="277.611958362" xlink:href="#m610f25113b" y="29.6005685669"/>
     <use style="fill:#8172b2;" x="277.611958362" xlink:href="#m610f25113b" y="32.2083255647"/>
     <use style="fill:#8172b2;" x="277.611958362" xlink:href="#m610f25113b" y="47.0508982618"/>
     <use style="fill:#8172b2;" x="277.611958362" xlink:href="#m610f25113b" y="44.898322256"/>
     <use style="fill:#8172b2;" x="277.611958362" xlink:href="#m610f25113b" y="37.006755057"/>
     <use style="fill:#8172b2;" x="277.611958362" xlink:href="#m610f25113b" y="29.0496044788"/>
     <use style="fill:#8172b2;" x="277.611958362" xlink:href="#m610f25113b" y="56.3431093903"/>
     <use style="fill:#8172b2;" x="277.611958362" xlink:href="#m610f25113b" y="40.5144643421"/>
     <use style="fill:#8172b2;" x="277.611958362" xlink:href="#m610f25113b" y="36.7999719114"/>
     <use style="fill:#8172b2;" x="277.611958362" xlink:href="#m610f25113b" y="31.9527065916"/>
     <use style="fill:#8172b2;" x="277.611958362" xlink:href="#m610f25113b" y="47.1280323066"/>
     <use style="fill:#8172b2;" x="277.611958362" xlink:href="#m610f25113b" y="37.0553234353"/>
     <use style="fill:#8172b2;" x="277.611958362" xlink:href="#m610f25113b" y="40.8798209244"/>
     <use style="fill:#8172b2;" x="277.611958362" xlink:href="#m610f25113b" y="35.6185495821"/>
     <use style="fill:#8172b2;" x="277.611958362" xlink:href="#m610f25113b" y="37.3165277717"/>
     <use style="fill:#8172b2;" x="277.611958362" xlink:href="#m610f25113b" y="30.7051091399"/>
     <use style="fill:#8172b2;" x="277.611958362" xlink:href="#m610f25113b" y="29.4368288241"/>
     <use style="fill:#8172b2;" x="277.611958362" xlink:href="#m610f25113b" y="36.7825324376"/>
     <use style="fill:#8172b2;" x="277.611958362" xlink:href="#m610f25113b" y="29.6974931221"/>
     <use style="fill:#8172b2;" x="277.611958362" xlink:href="#m610f25113b" y="32.2801054193"/>
     <use style="fill:#8172b2;" x="277.611958362" xlink:href="#m610f25113b" y="45.2248768688"/>
     <use style="fill:#8172b2;" x="277.611958362" xlink:href="#m610f25113b" y="29.4111315002"/>
     <use style="fill:#8172b2;" x="277.611958362" xlink:href="#m610f25113b" y="36.6224995274"/>
     <use style="fill:#8172b2;" x="277.611958362" xlink:href="#m610f25113b" y="35.7281484033"/>
     <use style="fill:#8172b2;" x="277.611958362" xlink:href="#m610f25113b" y="34.4594797114"/>
     <use style="fill:#8172b2;" x="277.611958362" xlink:href="#m610f25113b" y="31.9921738187"/>
     <use style="fill:#8172b2;" x="277.611958362" xlink:href="#m610f25113b" y="29.6709355395"/>
     <use style="fill:#8172b2;" x="277.611958362" xlink:href="#m610f25113b" y="43.7439840786"/>
     <use style="fill:#8172b2;" x="277.611958362" xlink:href="#m610f25113b" y="39.6925059146"/>
     <use style="fill:#8172b2;" x="277.611958362" xlink:href="#m610f25113b" y="29.2345319102"/>
     <use style="fill:#8172b2;" x="277.611958362" xlink:href="#m610f25113b" y="34.4609860347"/>
     <use style="fill:#8172b2;" x="277.611958362" xlink:href="#m610f25113b" y="33.4879660102"/>
     <use style="fill:#8172b2;" x="277.611958362" xlink:href="#m610f25113b" y="31.1449650101"/>
     <use style="fill:#8172b2;" x="277.611958362" xlink:href="#m610f25113b" y="37.5867598536"/>
     <use style="fill:#8172b2;" x="277.611958362" xlink:href="#m610f25113b" y="40.0347519025"/>
     <use style="fill:#8172b2;" x="277.611958362" xlink:href="#m610f25113b" y="37.9687633641"/>
     <use style="fill:#8172b2;" x="277.611958362" xlink:href="#m610f25113b" y="31.7502335805"/>
     <use style="fill:#8172b2;" x="277.611958362" xlink:href="#m610f25113b" y="37.9032398072"/>
     <use style="fill:#8172b2;" x="277.611958362" xlink:href="#m610f25113b" y="45.6418901765"/>
     <use style="fill:#8172b2;" x="277.611958362" xlink:href="#m610f25113b" y="33.3711330508"/>
     <use style="fill:#8172b2;" x="277.611958362" xlink:href="#m610f25113b" y="37.9878135972"/>
     <use style="fill:#8172b2;" x="277.611958362" xlink:href="#m610f25113b" y="37.0228378994"/>
     <use style="fill:#8172b2;" x="277.611958362" xlink:href="#m610f25113b" y="52.4518613375"/>
     <use style="fill:#8172b2;" x="277.611958362" xlink:href="#m610f25113b" y="35.5517733127"/>
     <use style="fill:#8172b2;" x="277.611958362" xlink:href="#m610f25113b" y="39.37739602"/>
     <use style="fill:#8172b2;" x="277.611958362" xlink:href="#m610f25113b" y="28.7864505176"/>
    </g>
   </g>
   <g id="line2d_88">
    <defs>
     <path d="M 0 3.5 
C 0.928211 3.5 1.81853 3.131218 2.474874 2.474874 
C 3.131218 1.81853 3.5 0.928211 3.5 0 
C 3.5 -0.928211 3.131218 -1.81853 2.474874 -2.474874 
C 1.81853 -3.131218 0.928211 -3.5 0 -3.5 
C -0.928211 -3.5 -1.81853 -3.131218 -2.474874 -2.474874 
C -3.131218 -1.81853 -3.5 -0.928211 -3.5 0 
C -3.5 0.928211 -3.131218 1.81853 -2.474874 2.474874 
C -1.81853 3.131218 -0.928211 3.5 0 3.5 
z
" id="m298a1d0011"/>
    </defs>
    <g clip-path="url(#p76d3e9df21)">
     <use style="fill:#ccb974;" x="339.075541638" xlink:href="#m298a1d0011" y="29.8795884814"/>
     <use style="fill:#ccb974;" x="339.075541638" xlink:href="#m298a1d0011" y="31.881652864"/>
     <use style="fill:#ccb974;" x="339.075541638" xlink:href="#m298a1d0011" y="31.973004254"/>
     <use style="fill:#ccb974;" x="339.075541638" xlink:href="#m298a1d0011" y="27.3869911496"/>
     <use style="fill:#ccb974;" x="339.075541638" xlink:href="#m298a1d0011" y="30.7124921664"/>
     <use style="fill:#ccb974;" x="339.075541638" xlink:href="#m298a1d0011" y="34.649649611"/>
     <use style="fill:#ccb974;" x="339.075541638" xlink:href="#m298a1d0011" y="33.8358040768"/>
     <use style="fill:#ccb974;" x="339.075541638" xlink:href="#m298a1d0011" y="28.8733388464"/>
     <use style="fill:#ccb974;" x="339.075541638" xlink:href="#m298a1d0011" y="28.3104749645"/>
     <use style="fill:#ccb974;" x="339.075541638" xlink:href="#m298a1d0011" y="31.0427243701"/>
     <use style="fill:#ccb974;" x="339.075541638" xlink:href="#m298a1d0011" y="33.7924173183"/>
     <use style="fill:#ccb974;" x="339.075541638" xlink:href="#m298a1d0011" y="33.1447054561"/>
     <use style="fill:#ccb974;" x="339.075541638" xlink:href="#m298a1d0011" y="28.1146376975"/>
     <use style="fill:#ccb974;" x="339.075541638" xlink:href="#m298a1d0011" y="35.4901978214"/>
     <use style="fill:#ccb974;" x="339.075541638" xlink:href="#m298a1d0011" y="30.9130000964"/>
     <use style="fill:#ccb974;" x="339.075541638" xlink:href="#m298a1d0011" y="31.3934041486"/>
     <use style="fill:#ccb974;" x="339.075541638" xlink:href="#m298a1d0011" y="29.5915787267"/>
     <use style="fill:#ccb974;" x="339.075541638" xlink:href="#m298a1d0011" y="32.7823539102"/>
     <use style="fill:#ccb974;" x="339.075541638" xlink:href="#m298a1d0011" y="27.0681389248"/>
     <use style="fill:#ccb974;" x="339.075541638" xlink:href="#m298a1d0011" y="28.5831993998"/>
     <use style="fill:#ccb974;" x="339.075541638" xlink:href="#m298a1d0011" y="30.6813659633"/>
     <use style="fill:#ccb974;" x="339.075541638" xlink:href="#m298a1d0011" y="29.4008708385"/>
     <use style="fill:#ccb974;" x="339.075541638" xlink:href="#m298a1d0011" y="27.8694984221"/>
     <use style="fill:#ccb974;" x="339.075541638" xlink:href="#m298a1d0011" y="31.4431091846"/>
     <use style="fill:#ccb974;" x="339.075541638" xlink:href="#m298a1d0011" y="27.9100641763"/>
     <use style="fill:#ccb974;" x="339.075541638" xlink:href="#m298a1d0011" y="30.733629655"/>
     <use style="fill:#ccb974;" x="339.075541638" xlink:href="#m298a1d0011" y="31.6717475887"/>
     <use style="fill:#ccb974;" x="339.075541638" xlink:href="#m298a1d0011" y="29.2392220603"/>
     <use style="fill:#ccb974;" x="339.075541638" xlink:href="#m298a1d0011" y="31.1765938575"/>
     <use style="fill:#ccb974;" x="339.075541638" xlink:href="#m298a1d0011" y="28.9681128398"/>
     <use style="fill:#ccb974;" x="339.075541638" xlink:href="#m298a1d0011" y="35.6177718312"/>
     <use style="fill:#ccb974;" x="339.075541638" xlink:href="#m298a1d0011" y="35.4957892665"/>
     <use style="fill:#ccb974;" x="339.075541638" xlink:href="#m298a1d0011" y="27.6545920793"/>
     <use style="fill:#ccb974;" x="339.075541638" xlink:href="#m298a1d0011" y="33.7325487662"/>
     <use style="fill:#ccb974;" x="339.075541638" xlink:href="#m298a1d0011" y="29.5713679029"/>
     <use style="fill:#ccb974;" x="339.075541638" xlink:href="#m298a1d0011" y="29.6094616669"/>
     <use style="fill:#ccb974;" x="339.075541638" xlink:href="#m298a1d0011" y="41.6612525624"/>
     <use style="fill:#ccb974;" x="339.075541638" xlink:href="#m298a1d0011" y="35.6458041431"/>
     <use style="fill:#ccb974;" x="339.075541638" xlink:href="#m298a1d0011" y="39.7305690467"/>
     <use style="fill:#ccb974;" x="339.075541638" xlink:href="#m298a1d0011" y="37.5602643446"/>
     <use style="fill:#ccb974;" x="339.075541638" xlink:href="#m298a1d0011" y="28.0582239429"/>
     <use style="fill:#ccb974;" x="339.075541638" xlink:href="#m298a1d0011" y="32.4063461323"/>
     <use style="fill:#ccb974;" x="339.075541638" xlink:href="#m298a1d0011" y="31.8834384022"/>
     <use style="fill:#ccb974;" x="339.075541638" xlink:href="#m298a1d0011" y="36.3690029357"/>
     <use style="fill:#ccb974;" x="339.075541638" xlink:href="#m298a1d0011" y="30.9392761563"/>
     <use style="fill:#ccb974;" x="339.075541638" xlink:href="#m298a1d0011" y="38.6478957399"/>
     <use style="fill:#ccb974;" x="339.075541638" xlink:href="#m298a1d0011" y="32.0781348168"/>
     <use style="fill:#ccb974;" x="339.075541638" xlink:href="#m298a1d0011" y="31.3433080389"/>
     <use style="fill:#ccb974;" x="339.075541638" xlink:href="#m298a1d0011" y="27.8073888291"/>
    </g>
   </g>
   <g id="line2d_89">
    <defs>
     <path d="M 0 3.5 
C 0.928211 3.5 1.81853 3.131218 2.474874 2.474874 
C 3.131218 1.81853 3.5 0.928211 3.5 0 
C 3.5 -0.928211 3.131218 -1.81853 2.474874 -2.474874 
C 1.81853 -3.131218 0.928211 -3.5 0 -3.5 
C -0.928211 -3.5 -1.81853 -3.131218 -2.474874 -2.474874 
C -3.131218 -1.81853 -3.5 -0.928211 -3.5 0 
C -3.5 0.928211 -3.131218 1.81853 -2.474874 2.474874 
C -1.81853 3.131218 -0.928211 3.5 0 3.5 
z
" id="mb5063e62bc"/>
    </defs>
    <g clip-path="url(#p76d3e9df21)">
     <use style="fill:#64b5cd;" x="420.325979181" xlink:href="#mb5063e62bc" y="27.0246218872"/>
     <use style="fill:#64b5cd;" x="420.325979181" xlink:href="#mb5063e62bc" y="29.5741936056"/>
     <use style="fill:#64b5cd;" x="420.325979181" xlink:href="#mb5063e62bc" y="29.278109062"/>
     <use style="fill:#64b5cd;" x="420.325979181" xlink:href="#mb5063e62bc" y="26.6463241449"/>
     <use style="fill:#64b5cd;" x="420.325979181" xlink:href="#mb5063e62bc" y="26.8977283388"/>
     <use style="fill:#64b5cd;" x="420.325979181" xlink:href="#mb5063e62bc" y="26.4470950328"/>
     <use style="fill:#64b5cd;" x="420.325979181" xlink:href="#mb5063e62bc" y="27.7904761966"/>
     <use style="fill:#64b5cd;" x="420.325979181" xlink:href="#mb5063e62bc" y="27.263553559"/>
     <use style="fill:#64b5cd;" x="420.325979181" xlink:href="#mb5063e62bc" y="31.6567313935"/>
     <use style="fill:#64b5cd;" x="420.325979181" xlink:href="#mb5063e62bc" y="26.9143545151"/>
     <use style="fill:#64b5cd;" x="420.325979181" xlink:href="#mb5063e62bc" y="28.0771278564"/>
     <use style="fill:#64b5cd;" x="420.325979181" xlink:href="#mb5063e62bc" y="25.87285773"/>
     <use style="fill:#64b5cd;" x="420.325979181" xlink:href="#mb5063e62bc" y="26.6056693567"/>
     <use style="fill:#64b5cd;" x="420.325979181" xlink:href="#mb5063e62bc" y="29.8593798423"/>
     <use style="fill:#64b5cd;" x="420.325979181" xlink:href="#mb5063e62bc" y="26.9762026276"/>
     <use style="fill:#64b5cd;" x="420.325979181" xlink:href="#mb5063e62bc" y="27.6820792246"/>
     <use style="fill:#64b5cd;" x="420.325979181" xlink:href="#mb5063e62bc" y="26.7677426041"/>
     <use style="fill:#64b5cd;" x="420.325979181" xlink:href="#mb5063e62bc" y="27.0432839745"/>
     <use style="fill:#64b5cd;" x="420.325979181" xlink:href="#mb5063e62bc" y="27.288735981"/>
     <use style="fill:#64b5cd;" x="420.325979181" xlink:href="#mb5063e62bc" y="26.7761558129"/>
     <use style="fill:#64b5cd;" x="420.325979181" xlink:href="#mb5063e62bc" y="27.1879241393"/>
     <use style="fill:#64b5cd;" x="420.325979181" xlink:href="#mb5063e62bc" y="28.451253084"/>
     <use style="fill:#64b5cd;" x="420.325979181" xlink:href="#mb5063e62bc" y="26.3573147598"/>
     <use style="fill:#64b5cd;" x="420.325979181" xlink:href="#mb5063e62bc" y="28.9549125814"/>
     <use style="fill:#64b5cd;" x="420.325979181" xlink:href="#mb5063e62bc" y="27.4107378908"/>
     <use style="fill:#64b5cd;" x="420.325979181" xlink:href="#mb5063e62bc" y="26.2344624467"/>
     <use style="fill:#64b5cd;" x="420.325979181" xlink:href="#mb5063e62bc" y="27.802802234"/>
     <use style="fill:#64b5cd;" x="420.325979181" xlink:href="#mb5063e62bc" y="26.7974949539"/>
     <use style="fill:#64b5cd;" x="420.325979181" xlink:href="#mb5063e62bc" y="26.9889744901"/>
     <use style="fill:#64b5cd;" x="420.325979181" xlink:href="#mb5063e62bc" y="26.3166586597"/>
     <use style="fill:#64b5cd;" x="420.325979181" xlink:href="#mb5063e62bc" y="27.0908295711"/>
     <use style="fill:#64b5cd;" x="420.325979181" xlink:href="#mb5063e62bc" y="28.1493958531"/>
     <use style="fill:#64b5cd;" x="420.325979181" xlink:href="#mb5063e62bc" y="27.1643083384"/>
     <use style="fill:#64b5cd;" x="420.325979181" xlink:href="#mb5063e62bc" y="27.5128360724"/>
     <use style="fill:#64b5cd;" x="420.325979181" xlink:href="#mb5063e62bc" y="27.377553894"/>
     <use style="fill:#64b5cd;" x="420.325979181" xlink:href="#mb5063e62bc" y="28.5713169104"/>
     <use style="fill:#64b5cd;" x="420.325979181" xlink:href="#mb5063e62bc" y="31.3846619807"/>
     <use style="fill:#64b5cd;" x="420.325979181" xlink:href="#mb5063e62bc" y="27.2571697363"/>
     <use style="fill:#64b5cd;" x="420.325979181" xlink:href="#mb5063e62bc" y="29.2903819911"/>
     <use style="fill:#64b5cd;" x="420.325979181" xlink:href="#mb5063e62bc" y="29.3585663445"/>
     <use style="fill:#64b5cd;" x="420.325979181" xlink:href="#mb5063e62bc" y="28.6407425614"/>
     <use style="fill:#64b5cd;" x="420.325979181" xlink:href="#mb5063e62bc" y="29.2547572235"/>
     <use style="fill:#64b5cd;" x="420.325979181" xlink:href="#mb5063e62bc" y="26.9234203475"/>
     <use style="fill:#64b5cd;" x="420.325979181" xlink:href="#mb5063e62bc" y="28.0637238578"/>
     <use style="fill:#64b5cd;" x="420.325979181" xlink:href="#mb5063e62bc" y="27.5521258578"/>
     <use style="fill:#64b5cd;" x="420.325979181" xlink:href="#mb5063e62bc" y="28.7687951293"/>
     <use style="fill:#64b5cd;" x="420.325979181" xlink:href="#mb5063e62bc" y="34.8951257104"/>
     <use style="fill:#64b5cd;" x="420.325979181" xlink:href="#mb5063e62bc" y="27.5686326967"/>
     <use style="fill:#64b5cd;" x="420.325979181" xlink:href="#mb5063e62bc" y="27.9101244288"/>
    </g>
   </g>
   <g id="line2d_90">
    <g clip-path="url(#p76d3e9df21)">
     <use style="fill:#4c72b0;" x="481.789562456" xlink:href="#mc51e1a3389" y="28.4637338559"/>
     <use style="fill:#4c72b0;" x="481.789562456" xlink:href="#mc51e1a3389" y="26.9513544586"/>
     <use style="fill:#4c72b0;" x="481.789562456" xlink:href="#mc51e1a3389" y="26.0039216245"/>
     <use style="fill:#4c72b0;" x="481.789562456" xlink:href="#mc51e1a3389" y="25.6703368238"/>
     <use style="fill:#4c72b0;" x="481.789562456" xlink:href="#mc51e1a3389" y="26.8551505925"/>
     <use style="fill:#4c72b0;" x="481.789562456" xlink:href="#mc51e1a3389" y="25.8715675401"/>
     <use style="fill:#4c72b0;" x="481.789562456" xlink:href="#mc51e1a3389" y="26.6506996191"/>
     <use style="fill:#4c72b0;" x="481.789562456" xlink:href="#mc51e1a3389" y="26.6215641385"/>
     <use style="fill:#4c72b0;" x="481.789562456" xlink:href="#mc51e1a3389" y="28.1893588731"/>
     <use style="fill:#4c72b0;" x="481.789562456" xlink:href="#mc51e1a3389" y="26.1683642403"/>
     <use style="fill:#4c72b0;" x="481.789562456" xlink:href="#mc51e1a3389" y="26.049202317"/>
     <use style="fill:#4c72b0;" x="481.789562456" xlink:href="#mc51e1a3389" y="27.6621764019"/>
     <use style="fill:#4c72b0;" x="481.789562456" xlink:href="#mc51e1a3389" y="25.4651317841"/>
     <use style="fill:#4c72b0;" x="481.789562456" xlink:href="#mc51e1a3389" y="26.0975746598"/>
     <use style="fill:#4c72b0;" x="481.789562456" xlink:href="#mc51e1a3389" y="27.2516219847"/>
     <use style="fill:#4c72b0;" x="481.789562456" xlink:href="#mc51e1a3389" y="26.9100727942"/>
     <use style="fill:#4c72b0;" x="481.789562456" xlink:href="#mc51e1a3389" y="28.2351835414"/>
     <use style="fill:#4c72b0;" x="481.789562456" xlink:href="#mc51e1a3389" y="27.0384530576"/>
     <use style="fill:#4c72b0;" x="481.789562456" xlink:href="#mc51e1a3389" y="26.6761097281"/>
     <use style="fill:#4c72b0;" x="481.789562456" xlink:href="#mc51e1a3389" y="25.9950085931"/>
     <use style="fill:#4c72b0;" x="481.789562456" xlink:href="#mc51e1a3389" y="26.6444016443"/>
     <use style="fill:#4c72b0;" x="481.789562456" xlink:href="#mc51e1a3389" y="27.3140256209"/>
     <use style="fill:#4c72b0;" x="481.789562456" xlink:href="#mc51e1a3389" y="25.6624457151"/>
     <use style="fill:#4c72b0;" x="481.789562456" xlink:href="#mc51e1a3389" y="27.492861326"/>
     <use style="fill:#4c72b0;" x="481.789562456" xlink:href="#mc51e1a3389" y="26.4406587865"/>
     <use style="fill:#4c72b0;" x="481.789562456" xlink:href="#mc51e1a3389" y="25.9017430566"/>
     <use style="fill:#4c72b0;" x="481.789562456" xlink:href="#mc51e1a3389" y="27.3634363613"/>
     <use style="fill:#4c72b0;" x="481.789562456" xlink:href="#mc51e1a3389" y="25.8178090953"/>
     <use style="fill:#4c72b0;" x="481.789562456" xlink:href="#mc51e1a3389" y="25.8072293197"/>
     <use style="fill:#4c72b0;" x="481.789562456" xlink:href="#mc51e1a3389" y="26.8833505777"/>
     <use style="fill:#4c72b0;" x="481.789562456" xlink:href="#mc51e1a3389" y="26.8668373272"/>
     <use style="fill:#4c72b0;" x="481.789562456" xlink:href="#mc51e1a3389" y="33.2010061721"/>
     <use style="fill:#4c72b0;" x="481.789562456" xlink:href="#mc51e1a3389" y="26.9872006811"/>
     <use style="fill:#4c72b0;" x="481.789562456" xlink:href="#mc51e1a3389" y="26.4955109228"/>
     <use style="fill:#4c72b0;" x="481.789562456" xlink:href="#mc51e1a3389" y="27.4952365132"/>
     <use style="fill:#4c72b0;" x="481.789562456" xlink:href="#mc51e1a3389" y="26.8363360432"/>
     <use style="fill:#4c72b0;" x="481.789562456" xlink:href="#mc51e1a3389" y="27.8067359225"/>
     <use style="fill:#4c72b0;" x="481.789562456" xlink:href="#mc51e1a3389" y="25.5612956764"/>
     <use style="fill:#4c72b0;" x="481.789562456" xlink:href="#mc51e1a3389" y="26.9492957868"/>
     <use style="fill:#4c72b0;" x="481.789562456" xlink:href="#mc51e1a3389" y="27.4163803983"/>
     <use style="fill:#4c72b0;" x="481.789562456" xlink:href="#mc51e1a3389" y="26.0716306696"/>
     <use style="fill:#4c72b0;" x="481.789562456" xlink:href="#mc51e1a3389" y="28.2402932003"/>
     <use style="fill:#4c72b0;" x="481.789562456" xlink:href="#mc51e1a3389" y="26.3859022224"/>
     <use style="fill:#4c72b0;" x="481.789562456" xlink:href="#mc51e1a3389" y="26.5170740012"/>
     <use style="fill:#4c72b0;" x="481.789562456" xlink:href="#mc51e1a3389" y="26.0267458577"/>
     <use style="fill:#4c72b0;" x="481.789562456" xlink:href="#mc51e1a3389" y="25.9831823109"/>
     <use style="fill:#4c72b0;" x="481.789562456" xlink:href="#mc51e1a3389" y="30.590680512"/>
     <use style="fill:#4c72b0;" x="481.789562456" xlink:href="#mc51e1a3389" y="26.2451869464"/>
     <use style="fill:#4c72b0;" x="481.789562456" xlink:href="#mc51e1a3389" y="29.2005587396"/>
    </g>
   </g>
   <g id="line2d_91">
    <g clip-path="url(#p76d3e9df21)">
     <use style="fill:#55a868;" x="543.253145731" xlink:href="#m28e2eba66b" y="26.6252440169"/>
     <use style="fill:#55a868;" x="543.253145731" xlink:href="#m28e2eba66b" y="25.9327076963"/>
     <use style="fill:#55a868;" x="543.253145731" xlink:href="#m28e2eba66b" y="26.8828593093"/>
     <use style="fill:#55a868;" x="543.253145731" xlink:href="#m28e2eba66b" y="28.0359335752"/>
     <use style="fill:#55a868;" x="543.253145731" xlink:href="#m28e2eba66b" y="26.5989895549"/>
     <use style="fill:#55a868;" x="543.253145731" xlink:href="#m28e2eba66b" y="27.1286150026"/>
     <use style="fill:#55a868;" x="543.253145731" xlink:href="#m28e2eba66b" y="26.1158935115"/>
     <use style="fill:#55a868;" x="543.253145731" xlink:href="#m28e2eba66b" y="27.0254896493"/>
     <use style="fill:#55a868;" x="543.253145731" xlink:href="#m28e2eba66b" y="25.3769467987"/>
     <use style="fill:#55a868;" x="543.253145731" xlink:href="#m28e2eba66b" y="26.5644091511"/>
     <use style="fill:#55a868;" x="543.253145731" xlink:href="#m28e2eba66b" y="26.424742346"/>
     <use style="fill:#55a868;" x="543.253145731" xlink:href="#m28e2eba66b" y="26.5946795183"/>
     <use style="fill:#55a868;" x="543.253145731" xlink:href="#m28e2eba66b" y="26.6732398796"/>
     <use style="fill:#55a868;" x="543.253145731" xlink:href="#m28e2eba66b" y="26.8243952992"/>
     <use style="fill:#55a868;" x="543.253145731" xlink:href="#m28e2eba66b" y="25.562849692"/>
     <use style="fill:#55a868;" x="543.253145731" xlink:href="#m28e2eba66b" y="27.107646006"/>
     <use style="fill:#55a868;" x="543.253145731" xlink:href="#m28e2eba66b" y="26.5632294016"/>
     <use style="fill:#55a868;" x="543.253145731" xlink:href="#m28e2eba66b" y="26.4983961006"/>
     <use style="fill:#55a868;" x="543.253145731" xlink:href="#m28e2eba66b" y="27.0473474945"/>
     <use style="fill:#55a868;" x="543.253145731" xlink:href="#m28e2eba66b" y="27.4004042872"/>
     <use style="fill:#55a868;" x="543.253145731" xlink:href="#m28e2eba66b" y="26.9743456931"/>
     <use style="fill:#55a868;" x="543.253145731" xlink:href="#m28e2eba66b" y="26.4682892453"/>
     <use style="fill:#55a868;" x="543.253145731" xlink:href="#m28e2eba66b" y="27.1979523616"/>
     <use style="fill:#55a868;" x="543.253145731" xlink:href="#m28e2eba66b" y="27.9228472833"/>
     <use style="fill:#55a868;" x="543.253145731" xlink:href="#m28e2eba66b" y="26.4191124919"/>
     <use style="fill:#55a868;" x="543.253145731" xlink:href="#m28e2eba66b" y="26.0037000499"/>
     <use style="fill:#55a868;" x="543.253145731" xlink:href="#m28e2eba66b" y="28.0286339744"/>
     <use style="fill:#55a868;" x="543.253145731" xlink:href="#m28e2eba66b" y="26.6046954966"/>
     <use style="fill:#55a868;" x="543.253145731" xlink:href="#m28e2eba66b" y="26.3000484538"/>
     <use style="fill:#55a868;" x="543.253145731" xlink:href="#m28e2eba66b" y="25.2778699582"/>
     <use style="fill:#55a868;" x="543.253145731" xlink:href="#m28e2eba66b" y="28.2897025581"/>
     <use style="fill:#55a868;" x="543.253145731" xlink:href="#m28e2eba66b" y="27.542276589"/>
     <use style="fill:#55a868;" x="543.253145731" xlink:href="#m28e2eba66b" y="27.052319476"/>
     <use style="fill:#55a868;" x="543.253145731" xlink:href="#m28e2eba66b" y="26.2104322769"/>
     <use style="fill:#55a868;" x="543.253145731" xlink:href="#m28e2eba66b" y="25.5065840387"/>
     <use style="fill:#55a868;" x="543.253145731" xlink:href="#m28e2eba66b" y="27.163013945"/>
     <use style="fill:#55a868;" x="543.253145731" xlink:href="#m28e2eba66b" y="25.0911817268"/>
     <use style="fill:#55a868;" x="543.253145731" xlink:href="#m28e2eba66b" y="26.1808797886"/>
     <use style="fill:#55a868;" x="543.253145731" xlink:href="#m28e2eba66b" y="25.89230359"/>
     <use style="fill:#55a868;" x="543.253145731" xlink:href="#m28e2eba66b" y="27.8211521801"/>
     <use style="fill:#55a868;" x="543.253145731" xlink:href="#m28e2eba66b" y="27.0099802899"/>
     <use style="fill:#55a868;" x="543.253145731" xlink:href="#m28e2eba66b" y="27.6185729463"/>
     <use style="fill:#55a868;" x="543.253145731" xlink:href="#m28e2eba66b" y="26.3336596004"/>
     <use style="fill:#55a868;" x="543.253145731" xlink:href="#m28e2eba66b" y="27.5345630213"/>
     <use style="fill:#55a868;" x="543.253145731" xlink:href="#m28e2eba66b" y="27.3852736635"/>
     <use style="fill:#55a868;" x="543.253145731" xlink:href="#m28e2eba66b" y="26.5094183661"/>
     <use style="fill:#55a868;" x="543.253145731" xlink:href="#m28e2eba66b" y="26.2421207183"/>
     <use style="fill:#55a868;" x="543.253145731" xlink:href="#m28e2eba66b" y="26.6132105659"/>
     <use style="fill:#55a868;" x="543.253145731" xlink:href="#m28e2eba66b" y="25.7377105479"/>
    </g>
   </g>
   <g id="line2d_92">
    <path clip-path="url(#p76d3e9df21)" d="M -1 173.248535 
L 11.970771 173.083623 
L 73.434354 110.439028 
L 109.388246 85.992606 
L 134.897938 72.808699 
L 154.684792 64.510345 
L 170.851829 58.784825 
L 184.520864 54.585469 
L 196.361521 51.367872 
L 206.80572 48.820202 
L 216.148375 46.750678 
L 224.599834 45.034714 
L 239.413056 42.350436 
L 252.102266 40.343538 
L 263.200884 38.783842 
L 277.611958 36.999656 
L 293.778995 35.281426 
L 310.55969 33.769607 
L 327.234885 32.500172 
L 345.488447 31.334956 
L 365.686778 30.273281 
L 388.698468 29.301315 
L 413.890903 28.468121 
L 442.905921 27.739348 
L 476.773288 27.121296 
L 517.15032 26.615938 
L 547.368148 26.353135 
L 547.368148 26.353135 
" style="fill:none;stroke:#808080;stroke-linecap:round;stroke-width:0.9;"/>
   </g>
   <g id="line2d_93">
    <defs>
     <path d="M 0 2.5 
C 0.663008 2.5 1.29895 2.236584 1.767767 1.767767 
C 2.236584 1.29895 2.5 0.663008 2.5 0 
C 2.5 -0.663008 2.236584 -1.29895 1.767767 -1.767767 
C 1.29895 -2.236584 0.663008 -2.5 0 -2.5 
C -0.663008 -2.5 -1.29895 -2.236584 -1.767767 -1.767767 
C -2.236584 -1.29895 -2.5 -0.663008 -2.5 0 
C -2.5 0.663008 -2.236584 1.29895 -1.767767 1.767767 
C -1.29895 2.236584 -0.663008 2.5 0 2.5 
z
" id="ma8d87f850d"/>
    </defs>
    <g clip-path="url(#p76d3e9df21)">
     <use style="fill:#808080;" x="73.4343542687" xlink:href="#ma8d87f850d" y="110.444153496"/>
     <use style="fill:#808080;" x="134.897937544" xlink:href="#ma8d87f850d" y="72.7945901228"/>
     <use style="fill:#808080;" x="216.148375087" xlink:href="#ma8d87f850d" y="46.6753529161"/>
     <use style="fill:#808080;" x="277.611958362" xlink:href="#ma8d87f850d" y="37.2376061383"/>
     <use style="fill:#808080;" x="339.075541638" xlink:href="#ma8d87f850d" y="31.7209388872"/>
     <use style="fill:#808080;" x="420.325979181" xlink:href="#ma8d87f850d" y="27.9118250304"/>
     <use style="fill:#808080;" x="481.789562456" xlink:href="#ma8d87f850d" y="26.9598293477"/>
     <use style="fill:#808080;" x="543.253145731" xlink:href="#ma8d87f850d" y="26.6921605957"/>
    </g>
   </g>
   <g id="patch_3">
    <path d="M 53.6475 12.96 
L 563.04 12.96 
" style="fill:none;"/>
   </g>
   <g id="patch_4">
    <path d="M 563.04 352.997812 
L 563.04 12.96 
" style="fill:none;"/>
   </g>
   <g id="patch_5">
    <path d="M 53.6475 352.997813 
L 563.04 352.997813 
" style="fill:none;"/>
   </g>
   <g id="patch_6">
    <path d="M 53.6475 352.997812 
L 53.6475 12.96 
" style="fill:none;"/>
   </g>
   <g id="text_16">
    <!-- 4PL curve fit -->
    <defs>
     <path d="M 7.328125 0 
L 7.328125 71.578125 
L 16.796875 71.578125 
L 16.796875 8.453125 
L 52.046875 8.453125 
L 52.046875 0 
z
" id="ArialMT-4c"/>
     <path d="M 21 0 
L 1.265625 51.859375 
L 10.546875 51.859375 
L 21.6875 20.796875 
Q 23.484375 15.765625 25 10.359375 
Q 26.171875 14.453125 28.265625 20.21875 
L 39.796875 51.859375 
L 48.828125 51.859375 
L 29.203125 0 
z
" id="ArialMT-76"/>
    </defs>
    <g style="fill:#262626;" transform="translate(286.063417645 148.975125)scale(0.11 -0.11)">
     <use xlink:href="#ArialMT-34"/>
     <use x="55.615234375" xlink:href="#ArialMT-50"/>
     <use x="122.314453125" xlink:href="#ArialMT-4c"/>
     <use x="177.8828125" xlink:href="#ArialMT-20"/>
     <use x="205.666015625" xlink:href="#ArialMT-63"/>
     <use x="255.666015625" xlink:href="#ArialMT-75"/>
     <use x="311.28125" xlink:href="#ArialMT-72"/>
     <use x="344.58203125" xlink:href="#ArialMT-76"/>
     <use x="394.58203125" xlink:href="#ArialMT-65"/>
     <use x="450.197265625" xlink:href="#ArialMT-20"/>
     <use x="477.98046875" xlink:href="#ArialMT-66"/>
     <use x="505.763671875" xlink:href="#ArialMT-69"/>
     <use x="527.98046875" xlink:href="#ArialMT-74"/>
    </g>
   </g>
   <g id="text_17">
    <!-- y = ((A-D)/(1.0+((x/C)**B))) + D -->
    <defs>
     <path d="M 7.328125 0 
L 7.328125 71.578125 
L 34.1875 71.578125 
Q 42.390625 71.578125 47.34375 69.40625 
Q 52.296875 67.234375 55.09375 62.71875 
Q 57.90625 58.203125 57.90625 53.265625 
Q 57.90625 48.6875 55.421875 44.625 
Q 52.9375 40.578125 47.90625 38.09375 
Q 54.390625 36.1875 57.875 31.59375 
Q 61.375 27 61.375 20.75 
Q 61.375 15.71875 59.25 11.390625 
Q 57.125 7.078125 54 4.734375 
Q 50.875 2.390625 46.15625 1.1875 
Q 41.453125 0 34.625 0 
z
M 16.796875 41.5 
L 32.28125 41.5 
Q 38.578125 41.5 41.3125 42.328125 
Q 44.921875 43.40625 46.75 45.890625 
Q 48.578125 48.390625 48.578125 52.15625 
Q 48.578125 55.71875 46.875 58.421875 
Q 45.171875 61.140625 41.984375 62.140625 
Q 38.8125 63.140625 31.109375 63.140625 
L 16.796875 63.140625 
z
M 16.796875 8.453125 
L 34.625 8.453125 
Q 39.203125 8.453125 41.0625 8.796875 
Q 44.34375 9.375 46.53125 10.734375 
Q 48.734375 12.109375 50.140625 14.71875 
Q 51.5625 17.328125 51.5625 20.75 
Q 51.5625 24.75 49.515625 27.703125 
Q 47.46875 30.671875 43.828125 31.859375 
Q 40.1875 33.0625 33.34375 33.0625 
L 16.796875 33.0625 
z
" id="ArialMT-42"/>
     <path d="M 0.734375 0 
L 19.671875 26.953125 
L 2.15625 51.859375 
L 13.140625 51.859375 
L 21.09375 39.703125 
Q 23.34375 36.234375 24.703125 33.890625 
Q 26.859375 37.109375 28.65625 39.59375 
L 37.40625 51.859375 
L 47.90625 51.859375 
L 29.984375 27.4375 
L 49.265625 0 
L 38.484375 0 
L 27.828125 16.109375 
L 25 20.453125 
L 11.375 0 
z
" id="ArialMT-78"/>
     <path d="M 6.203125 -19.96875 
L 5.21875 -11.71875 
Q 8.109375 -12.5 10.25 -12.5 
Q 13.1875 -12.5 14.9375 -11.515625 
Q 16.703125 -10.546875 17.828125 -8.796875 
Q 18.65625 -7.46875 20.515625 -2.25 
Q 20.75 -1.515625 21.296875 -0.09375 
L 1.609375 51.859375 
L 11.078125 51.859375 
L 21.875 21.828125 
Q 23.96875 16.109375 25.640625 9.8125 
Q 27.15625 15.875 29.25 21.625 
L 40.328125 51.859375 
L 49.125 51.859375 
L 29.390625 -0.875 
Q 26.21875 -9.421875 24.46875 -12.640625 
Q 22.125 -17 19.09375 -19.015625 
Q 16.0625 -21.046875 11.859375 -21.046875 
Q 9.328125 -21.046875 6.203125 -19.96875 
" id="ArialMT-79"/>
     <path d="M -0.140625 0 
L 27.34375 71.578125 
L 37.546875 71.578125 
L 66.84375 0 
L 56.0625 0 
L 47.703125 21.6875 
L 17.78125 21.6875 
L 9.90625 0 
z
M 20.515625 29.390625 
L 44.78125 29.390625 
L 37.3125 49.21875 
Q 33.890625 58.25 32.234375 64.0625 
Q 30.859375 57.171875 28.375 50.390625 
z
" id="ArialMT-41"/>
     <path d="M 0 -1.21875 
L 20.75 72.796875 
L 27.78125 72.796875 
L 7.078125 -1.21875 
z
" id="ArialMT-2f"/>
     <path d="M 58.796875 25.09375 
L 68.265625 22.703125 
Q 65.28125 11.03125 57.546875 4.90625 
Q 49.8125 -1.21875 38.625 -1.21875 
Q 27.046875 -1.21875 19.796875 3.484375 
Q 12.546875 8.203125 8.765625 17.140625 
Q 4.984375 26.078125 4.984375 36.328125 
Q 4.984375 47.515625 9.25 55.828125 
Q 13.53125 64.15625 21.40625 68.46875 
Q 29.296875 72.796875 38.765625 72.796875 
Q 49.515625 72.796875 56.828125 67.328125 
Q 64.15625 61.859375 67.046875 51.953125 
L 57.71875 49.75 
Q 55.21875 57.5625 50.484375 61.125 
Q 45.75 64.703125 38.578125 64.703125 
Q 30.328125 64.703125 24.78125 60.734375 
Q 19.234375 56.78125 16.984375 50.109375 
Q 14.75 43.453125 14.75 36.375 
Q 14.75 27.25 17.40625 20.4375 
Q 20.0625 13.625 25.671875 10.25 
Q 31.296875 6.890625 37.84375 6.890625 
Q 45.796875 6.890625 51.3125 11.46875 
Q 56.84375 16.0625 58.796875 25.09375 
" id="ArialMT-43"/>
     <path d="M 3.171875 21.484375 
L 3.171875 30.328125 
L 30.171875 30.328125 
L 30.171875 21.484375 
z
" id="ArialMT-2d"/>
     <path d="M 52.828125 42.09375 
L 5.5625 42.09375 
L 5.5625 50.296875 
L 52.828125 50.296875 
z
M 52.828125 20.359375 
L 5.5625 20.359375 
L 5.5625 28.5625 
L 52.828125 28.5625 
z
" id="ArialMT-3d"/>
     <path d="M 7.71875 0 
L 7.71875 71.578125 
L 32.375 71.578125 
Q 40.71875 71.578125 45.125 70.5625 
Q 51.265625 69.140625 55.609375 65.4375 
Q 61.28125 60.640625 64.078125 53.1875 
Q 66.890625 45.75 66.890625 36.1875 
Q 66.890625 28.03125 64.984375 21.734375 
Q 63.09375 15.4375 60.109375 11.296875 
Q 57.125 7.171875 53.578125 4.796875 
Q 50.046875 2.4375 45.046875 1.21875 
Q 40.046875 0 33.546875 0 
z
M 17.1875 8.453125 
L 32.46875 8.453125 
Q 39.546875 8.453125 43.578125 9.765625 
Q 47.609375 11.078125 50 13.484375 
Q 53.375 16.84375 55.25 22.53125 
Q 57.125 28.21875 57.125 36.328125 
Q 57.125 47.5625 53.4375 53.59375 
Q 49.75 59.625 44.484375 61.671875 
Q 40.671875 63.140625 32.234375 63.140625 
L 17.1875 63.140625 
z
" id="ArialMT-44"/>
     <path d="M 3.125 58.453125 
L 5.375 65.375 
Q 13.140625 62.640625 16.65625 60.640625 
Q 15.71875 69.484375 15.671875 72.796875 
L 22.75 72.796875 
Q 22.609375 67.96875 21.625 60.6875 
Q 26.65625 63.234375 33.15625 65.375 
L 35.40625 58.453125 
Q 29.203125 56.390625 23.25 55.71875 
Q 26.21875 53.125 31.640625 46.484375 
L 25.78125 42.328125 
Q 22.953125 46.1875 19.09375 52.828125 
Q 15.484375 45.953125 12.75 42.328125 
L 6.984375 46.484375 
Q 12.640625 53.46875 15.09375 55.71875 
Q 8.796875 56.9375 3.125 58.453125 
" id="ArialMT-2a"/>
     <path d="M 25.046875 11.578125 
L 25.046875 31.203125 
L 5.5625 31.203125 
L 5.5625 39.40625 
L 25.046875 39.40625 
L 25.046875 58.890625 
L 33.34375 58.890625 
L 33.34375 39.40625 
L 52.828125 39.40625 
L 52.828125 31.203125 
L 33.34375 31.203125 
L 33.34375 11.578125 
z
" id="ArialMT-2b"/>
     <path d="M 12.359375 -21.046875 
L 6.0625 -21.046875 
Q 20.65625 2.390625 20.65625 25.875 
Q 20.65625 35.0625 18.5625 44.09375 
Q 16.890625 51.421875 13.921875 58.15625 
Q 12.015625 62.546875 6.0625 72.796875 
L 12.359375 72.796875 
Q 21.53125 60.546875 25.921875 48.1875 
Q 29.6875 37.546875 29.6875 25.921875 
Q 29.6875 12.75 24.625 0.4375 
Q 19.578125 -11.859375 12.359375 -21.046875 
" id="ArialMT-29"/>
     <path d="M 23.390625 -21.046875 
Q 16.109375 -11.859375 11.078125 0.4375 
Q 6.0625 12.75 6.0625 25.921875 
Q 6.0625 37.546875 9.8125 48.1875 
Q 14.203125 60.546875 23.390625 72.796875 
L 29.6875 72.796875 
Q 23.78125 62.640625 21.875 58.296875 
Q 18.890625 51.5625 17.1875 44.234375 
Q 15.09375 35.109375 15.09375 25.875 
Q 15.09375 2.390625 29.6875 -21.046875 
z
" id="ArialMT-28"/>
    </defs>
    <g style="fill:#262626;" transform="translate(286.063417645 165.977015625)scale(0.11 -0.11)">
     <use xlink:href="#ArialMT-79"/>
     <use x="50.0" xlink:href="#ArialMT-20"/>
     <use x="77.783203125" xlink:href="#ArialMT-3d"/>
     <use x="136.181640625" xlink:href="#ArialMT-20"/>
     <use x="163.96484375" xlink:href="#ArialMT-28"/>
     <use x="197.265625" xlink:href="#ArialMT-28"/>
     <use x="230.56640625" xlink:href="#ArialMT-41"/>
     <use x="297.265625" xlink:href="#ArialMT-2d"/>
     <use x="330.56640625" xlink:href="#ArialMT-44"/>
     <use x="402.783203125" xlink:href="#ArialMT-29"/>
     <use x="436.083984375" xlink:href="#ArialMT-2f"/>
     <use x="463.8671875" xlink:href="#ArialMT-28"/>
     <use x="497.16796875" xlink:href="#ArialMT-31"/>
     <use x="552.783203125" xlink:href="#ArialMT-2e"/>
     <use x="580.56640625" xlink:href="#ArialMT-30"/>
     <use x="636.181640625" xlink:href="#ArialMT-2b"/>
     <use x="694.580078125" xlink:href="#ArialMT-28"/>
     <use x="727.880859375" xlink:href="#ArialMT-28"/>
     <use x="761.181640625" xlink:href="#ArialMT-78"/>
     <use x="811.181640625" xlink:href="#ArialMT-2f"/>
     <use x="838.96484375" xlink:href="#ArialMT-43"/>
     <use x="911.181640625" xlink:href="#ArialMT-29"/>
     <use x="944.482421875" xlink:href="#ArialMT-2a"/>
     <use x="983.3984375" xlink:href="#ArialMT-2a"/>
     <use x="1022.31445312" xlink:href="#ArialMT-42"/>
     <use x="1089.01367188" xlink:href="#ArialMT-29"/>
     <use x="1122.31445312" xlink:href="#ArialMT-29"/>
     <use x="1155.61523438" xlink:href="#ArialMT-29"/>
     <use x="1188.91601562" xlink:href="#ArialMT-20"/>
     <use x="1216.69921875" xlink:href="#ArialMT-2b"/>
     <use x="1275.09765625" xlink:href="#ArialMT-20"/>
     <use x="1302.88085938" xlink:href="#ArialMT-44"/>
    </g>
   </g>
   <g id="text_18">
    <!-- A = 0.736169077065 -->
    <defs>
     <path d="M 4.203125 18.890625 
L 12.984375 20.0625 
Q 14.5 12.59375 18.140625 9.296875 
Q 21.78125 6 27 6 
Q 33.203125 6 37.46875 10.296875 
Q 41.75 14.59375 41.75 20.953125 
Q 41.75 27 37.796875 30.921875 
Q 33.84375 34.859375 27.734375 34.859375 
Q 25.25 34.859375 21.53125 33.890625 
L 22.515625 41.609375 
Q 23.390625 41.5 23.921875 41.5 
Q 29.546875 41.5 34.03125 44.421875 
Q 38.53125 47.359375 38.53125 53.46875 
Q 38.53125 58.296875 35.25 61.46875 
Q 31.984375 64.65625 26.8125 64.65625 
Q 21.6875 64.65625 18.265625 61.421875 
Q 14.84375 58.203125 13.875 51.765625 
L 5.078125 53.328125 
Q 6.6875 62.15625 12.390625 67.015625 
Q 18.109375 71.875 26.609375 71.875 
Q 32.46875 71.875 37.390625 69.359375 
Q 42.328125 66.84375 44.9375 62.5 
Q 47.5625 58.15625 47.5625 53.265625 
Q 47.5625 48.640625 45.0625 44.828125 
Q 42.578125 41.015625 37.703125 38.765625 
Q 44.046875 37.3125 47.5625 32.6875 
Q 51.078125 28.078125 51.078125 21.140625 
Q 51.078125 11.765625 44.234375 5.25 
Q 37.40625 -1.265625 26.953125 -1.265625 
Q 17.53125 -1.265625 11.296875 4.34375 
Q 5.078125 9.96875 4.203125 18.890625 
" id="ArialMT-33"/>
     <path d="M 4.734375 62.203125 
L 4.734375 70.65625 
L 51.078125 70.65625 
L 51.078125 63.8125 
Q 44.234375 56.546875 37.515625 44.484375 
Q 30.8125 32.421875 27.15625 19.671875 
Q 24.515625 10.6875 23.78125 0 
L 14.75 0 
Q 14.890625 8.453125 18.0625 20.40625 
Q 21.234375 32.375 27.171875 43.484375 
Q 33.109375 54.59375 39.796875 62.203125 
z
" id="ArialMT-37"/>
    </defs>
    <g style="fill:#262626;" transform="translate(286.063417645 182.97890625)scale(0.11 -0.11)">
     <use xlink:href="#ArialMT-41"/>
     <use x="66.62109375" xlink:href="#ArialMT-20"/>
     <use x="94.404296875" xlink:href="#ArialMT-3d"/>
     <use x="152.802734375" xlink:href="#ArialMT-20"/>
     <use x="180.5859375" xlink:href="#ArialMT-30"/>
     <use x="236.201171875" xlink:href="#ArialMT-2e"/>
     <use x="263.984375" xlink:href="#ArialMT-37"/>
     <use x="319.599609375" xlink:href="#ArialMT-33"/>
     <use x="375.21484375" xlink:href="#ArialMT-36"/>
     <use x="430.830078125" xlink:href="#ArialMT-31"/>
     <use x="486.4453125" xlink:href="#ArialMT-36"/>
     <use x="542.060546875" xlink:href="#ArialMT-39"/>
     <use x="597.67578125" xlink:href="#ArialMT-30"/>
     <use x="653.291015625" xlink:href="#ArialMT-37"/>
     <use x="708.90625" xlink:href="#ArialMT-37"/>
     <use x="764.521484375" xlink:href="#ArialMT-30"/>
     <use x="820.13671875" xlink:href="#ArialMT-36"/>
     <use x="875.751953125" xlink:href="#ArialMT-35"/>
    </g>
   </g>
   <g id="text_19">
    <!-- B = 0.908725393511 -->
    <g style="fill:#262626;" transform="translate(286.063417645 199.980796875)scale(0.11 -0.11)">
     <use xlink:href="#ArialMT-42"/>
     <use x="66.69921875" xlink:href="#ArialMT-20"/>
     <use x="94.482421875" xlink:href="#ArialMT-3d"/>
     <use x="152.880859375" xlink:href="#ArialMT-20"/>
     <use x="180.6640625" xlink:href="#ArialMT-30"/>
     <use x="236.279296875" xlink:href="#ArialMT-2e"/>
     <use x="264.0625" xlink:href="#ArialMT-39"/>
     <use x="319.677734375" xlink:href="#ArialMT-30"/>
     <use x="375.29296875" xlink:href="#ArialMT-38"/>
     <use x="430.908203125" xlink:href="#ArialMT-37"/>
     <use x="486.5234375" xlink:href="#ArialMT-32"/>
     <use x="542.138671875" xlink:href="#ArialMT-35"/>
     <use x="597.75390625" xlink:href="#ArialMT-33"/>
     <use x="653.369140625" xlink:href="#ArialMT-39"/>
     <use x="708.984375" xlink:href="#ArialMT-33"/>
     <use x="764.599609375" xlink:href="#ArialMT-35"/>
     <use x="820.21484375" xlink:href="#ArialMT-31"/>
     <use x="875.720703125" xlink:href="#ArialMT-31"/>
    </g>
   </g>
   <g id="text_20">
    <!-- C = 3.96993811422 -->
    <g style="fill:#262626;" transform="translate(286.063417645 216.9826875)scale(0.11 -0.11)">
     <use xlink:href="#ArialMT-43"/>
     <use x="72.216796875" xlink:href="#ArialMT-20"/>
     <use x="100.0" xlink:href="#ArialMT-3d"/>
     <use x="158.3984375" xlink:href="#ArialMT-20"/>
     <use x="186.181640625" xlink:href="#ArialMT-33"/>
     <use x="241.796875" xlink:href="#ArialMT-2e"/>
     <use x="269.580078125" xlink:href="#ArialMT-39"/>
     <use x="325.1953125" xlink:href="#ArialMT-36"/>
     <use x="380.810546875" xlink:href="#ArialMT-39"/>
     <use x="436.42578125" xlink:href="#ArialMT-39"/>
     <use x="492.041015625" xlink:href="#ArialMT-33"/>
     <use x="547.65625" xlink:href="#ArialMT-38"/>
     <use x="603.271484375" xlink:href="#ArialMT-31"/>
     <use x="658.77734375" xlink:href="#ArialMT-31"/>
     <use x="714.392578125" xlink:href="#ArialMT-34"/>
     <use x="770.0078125" xlink:href="#ArialMT-32"/>
     <use x="825.623046875" xlink:href="#ArialMT-32"/>
    </g>
   </g>
   <g id="text_21">
    <!-- D = 0.999423451107 -->
    <g style="fill:#262626;" transform="translate(286.063417645 233.984578125)scale(0.11 -0.11)">
     <use xlink:href="#ArialMT-44"/>
     <use x="72.216796875" xlink:href="#ArialMT-20"/>
     <use x="100.0" xlink:href="#ArialMT-3d"/>
     <use x="158.3984375" xlink:href="#ArialMT-20"/>
     <use x="186.181640625" xlink:href="#ArialMT-30"/>
     <use x="241.796875" xlink:href="#ArialMT-2e"/>
     <use x="269.580078125" xlink:href="#ArialMT-39"/>
     <use x="325.1953125" xlink:href="#ArialMT-39"/>
     <use x="380.810546875" xlink:href="#ArialMT-39"/>
     <use x="436.42578125" xlink:href="#ArialMT-34"/>
     <use x="492.041015625" xlink:href="#ArialMT-32"/>
     <use x="547.65625" xlink:href="#ArialMT-33"/>
     <use x="603.271484375" xlink:href="#ArialMT-34"/>
     <use x="658.88671875" xlink:href="#ArialMT-35"/>
     <use x="714.501953125" xlink:href="#ArialMT-31"/>
     <use x="770.0078125" xlink:href="#ArialMT-31"/>
     <use x="825.623046875" xlink:href="#ArialMT-30"/>
     <use x="881.23828125" xlink:href="#ArialMT-37"/>
    </g>
   </g>
  </g>
 </g>
 <defs>
  <clipPath id="p76d3e9df21">
   <rect height="340.0378125" width="509.3925" x="53.6475" y="12.96"/>
  </clipPath>
 </defs>
</svg>
